<?xml version="1.0" encoding="UTF-8"?>
<svg version="1.1" xmlns="http://www.w3.org/2000/svg" width="64" height="64">
<path d="M0 0 C1.08539063 -0.02900391 2.17078125 -0.05800781 3.2890625 -0.08789062 C7.96428886 -0.12504096 11.43881346 -0.03811285 15.765625 1.83203125 C20.61608817 6.67486791 22.68883511 11.99581692 22.80578613 18.80737305 C22.79768921 19.57218994 22.78959229 20.33700684 22.78125 21.125 C22.7850769 21.93815674 22.78890381 22.75131348 22.79284668 23.58911133 C22.79555093 25.29672495 22.78829462 27.00438105 22.77148438 28.71191406 C22.75005131 31.30628963 22.77133484 33.89789671 22.796875 36.4921875 C22.79423146 38.16146437 22.78910593 39.83073953 22.78125 41.5 C22.78934692 42.26481689 22.79744385 43.02963379 22.80578613 43.81762695 C22.71096813 49.34009382 21.4055961 53.7289675 18.25 58.3125 C12.43804816 62.93833922 7.72544201 63.51603413 0.5 63.5625 C-0.28632813 63.583125 -1.07265625 63.60375 -1.8828125 63.625 C-7.88588783 63.66488754 -12.8171752 62.89680526 -17.4921875 58.77734375 C-21.5319877 53.33057866 -21.92039722 50.04127123 -21.953125 43.359375 C-21.96167511 42.01990814 -21.96167511 42.01990814 -21.97039795 40.65338135 C-21.97985486 38.76030667 -21.98638467 36.86721548 -21.99023438 34.97412109 C-21.99991474 32.08792024 -22.03092091 29.20243911 -22.0625 26.31640625 C-22.06903264 24.47656673 -22.07428209 22.63672211 -22.078125 20.796875 C-22.0904718 19.93729187 -22.1028186 19.07770874 -22.11553955 18.19207764 C-22.09692774 13.14427891 -21.55773177 9.68212663 -18.75 5.3125 C-12.56919257 -0.26530183 -8.05466344 0.07073768 0 0 Z M-17.3828125 9.41845703 C-19.19020556 13.24432083 -19.19907091 16.75539416 -19.18359375 20.90234375 C-19.1888356 21.72448868 -19.19407745 22.54663361 -19.19947815 23.39369202 C-19.20588401 25.12760288 -19.20457996 26.86155729 -19.19604492 28.59545898 C-19.18753779 31.23826034 -19.21630925 33.87889646 -19.24804688 36.52148438 C-19.24965924 38.21093686 -19.24908067 39.90039314 -19.24609375 41.58984375 C-19.25732773 42.37439438 -19.26856171 43.15894501 -19.28013611 43.9672699 C-19.2141443 49.20244266 -18.16450248 52.13268484 -14.75 56.3125 C-8.51039206 61.79579183 -0.5712553 60.76867078 7.25 60.3125 C11.34219839 59.4674444 13.71672634 57.87384069 16.625 54.8125 C19.47481775 50.428165 19.43843867 46.45126097 19.48828125 41.390625 C19.496353 40.61241394 19.50442474 39.83420288 19.51274109 39.03240967 C19.52656475 37.38491024 19.53729459 35.73738237 19.54516602 34.08984375 C19.55667348 32.4120235 19.57710592 30.73423951 19.60668945 29.05664062 C19.64954561 26.62605027 19.66556032 24.19654717 19.67578125 21.765625 C19.69328934 21.02370911 19.71079742 20.28179321 19.72883606 19.51739502 C19.70620801 14.02169995 18.3494852 10.86078258 15.25 6.3125 C10.88208299 2.39339648 5.88388245 2.83036402 0.3125 2.875 C-0.56857422 2.85501953 -1.44964844 2.83503906 -2.35742188 2.81445312 C-8.9252899 2.81937288 -13.17167937 3.98705237 -17.3828125 9.41845703 Z " fill="gray" transform="translate(31.75,0.6875)"/>
<path d="M0 0 C2.82660904 4.23991356 2.65060387 8.02288038 2 13 C0.375 15.6875 0.375 15.6875 -2 17 C-5.6985004 16.85205998 -7.35805573 16.64194427 -10 14 C-10.3359375 11.28515625 -10.3359375 11.28515625 -10.375 8.0625 C-10.40335938 7.00160156 -10.43171875 5.94070312 -10.4609375 4.84765625 C-10 2 -10 2 -8.171875 0.11328125 C-5.08904893 -1.46694434 -3.2569215 -0.99123698 0 0 Z M-5 2 C-7.18331689 3.76136355 -7.18331689 3.76136355 -7.1953125 5.9453125 C-7.16050781 7.02425781 -7.16050781 7.02425781 -7.125 8.125 C-7.08375 9.40375 -7.0425 10.6825 -7 12 C-5.34385343 12.38218767 -3.67542976 12.71395102 -2 13 C-0.79438816 12.01732141 -0.79438816 12.01732141 -0.90234375 10.15234375 C-0.91394531 9.42144531 -0.92554688 8.69054687 -0.9375 7.9375 C-0.958125 6.638125 -0.97875 5.33875 -1 4 C-2.32 3.34 -3.64 2.68 -5 2 Z " fill="gray" transform="translate(36,10)"/>
<path d="M0 0 C0.99 0 1.98 0 3 0 C3 3.3 3 6.6 3 10 C4.32 9.01 5.64 8.02 7 7 C7.99 7 8.98 7 10 7 C9.82374165 9.37948772 9.30280227 10.70225849 7.59765625 12.37890625 C6.09350908 13.62115486 4.54870149 14.81376056 3 16 C-0.9126984 14.6957672 -3.37310241 13.21065261 -6 10 C-6 9.01 -6 8.02 -6 7 C-2.125 7.875 -2.125 7.875 -1 9 C-0.67 6.03 -0.34 3.06 0 0 Z " fill="gray" transform="translate(30,40)"/>
<path d="M0 0 C0.99 0 1.98 0 3 0 C3 1.32 3 2.64 3 4 C2.01 3.67 1.02 3.34 0 3 C0 2.01 0 1.02 0 0 Z " fill="gray" transform="translate(30,32)"/>
</svg>
