<svg xmlns="http://www.w3.org/2000/svg" width="64" height="64"><path d="M31.75.688 35.04.6c4.674-.038 8.149.05 12.476 1.92 4.85 4.842 6.923 10.163 7.04 16.975l-.025 2.317.012 2.465c.003 1.707-.005 3.415-.022 5.122-.02 2.595 0 5.186.026 7.78-.003 1.67-.008 3.34-.016 5.008l.025 2.318C54.46 50.028 53.156 54.416 50 59c-5.812 4.626-10.525 5.204-17.75 5.25l-2.383.063c-6.003.04-10.934-.729-15.61-4.848-4.039-5.447-4.427-8.736-4.46-15.418L9.78 41.34c-.01-1.893-.016-3.786-.02-5.68a1141 1141 0 0 0-.072-8.657c-.007-1.84-.012-3.68-.016-5.52l-.038-2.604c.02-5.048.558-8.51 3.366-12.88C19.18.422 23.695.758 31.75.687Zm-17.383 9.418c-1.807 3.826-1.816 7.337-1.8 11.484l-.016 2.491c-.007 1.734-.006 3.468.003 5.202.008 2.643-.02 5.283-.052 7.926-.002 1.69-.001 3.379.002 5.068l-.034 2.378C12.536 49.89 13.585 52.82 17 57c6.24 5.483 14.179 4.456 22 4 4.092-.845 6.467-2.439 9.375-5.5 2.85-4.384 2.813-8.361 2.863-13.422l.025-2.358c.014-1.648.024-3.295.032-4.943.012-1.677.032-3.355.062-5.033.043-2.43.059-4.86.069-7.29l.053-2.25C51.456 14.71 50.099 11.549 47 7c-4.368-3.92-9.366-3.482-14.938-3.438l-2.67-.06c-6.567.005-10.814 1.173-15.025 6.604Z" fill="gray"/><path d="M36 10c2.827 4.24 2.65 8.023 2 13-1.625 2.688-1.625 2.688-4 4-3.699-.148-5.358-.358-8-3-.336-2.715-.336-2.715-.375-5.938l-.086-3.214C26 12 26 12 27.83 10.113 30.91 8.533 32.742 9.01 36 10Zm-5 2c-2.183 1.761-2.183 1.761-2.195 3.945l.07 2.18L29 22c1.656.382 3.325.714 5 1 1.206-.983 1.206-.983 1.098-2.848l-.035-2.215L35 14l-4-2ZM30 40h3v10l4-3h3c-.176 2.38-.697 3.702-2.402 5.379C36.094 53.62 34.548 54.814 33 56c-3.913-1.304-6.373-2.79-9-6v-3c3.875.875 3.875.875 5 2l1-9ZM30 32h3v4l-3-1v-3Z" fill="gray"/></svg>