<?xml version="1.0" encoding="UTF-8"?>
<svg version="1.1" xmlns="http://www.w3.org/2000/svg" width="50" height="50">
<path d="M0 0 C2.94566039 2.94566039 2.40192098 6.15572862 2.4765625 10.11328125 C2.50077774 11.32312935 2.50077774 11.32312935 2.52548218 12.55741882 C2.55316181 14.26630049 2.57460719 15.97529269 2.59033203 17.68432617 C2.62475131 20.29364664 2.71247568 22.89788511 2.80078125 25.50585938 C3.02795882 37.62849436 3.02795882 37.62849436 0.31542969 41.24755859 C-1.81451274 42.62189036 -3.54926553 43.38180943 -6 44 C-6.66483398 44.18884766 -7.32966797 44.37769531 -8.01464844 44.57226562 C-17.5810902 46.63330915 -29.5554099 46.16477162 -38 41 C-40.94566039 38.05433961 -40.40192098 34.84427138 -40.4765625 30.88671875 C-40.49270599 30.08015335 -40.50884949 29.27358795 -40.52548218 28.44258118 C-40.55316181 26.73369951 -40.57460719 25.02470731 -40.59033203 23.31567383 C-40.62475131 20.70635336 -40.71247568 18.10211489 -40.80078125 15.49414062 C-41.02795882 3.37150564 -41.02795882 3.37150564 -38.31542969 -0.24755859 C-36.18548726 -1.62189036 -34.45073447 -2.38180943 -32 -3 C-31.33516602 -3.18884766 -30.67033203 -3.37769531 -29.98535156 -3.57226562 C-20.4189098 -5.63330915 -8.4445901 -5.16477162 0 0 Z M-36 3 C-37.12815365 5.6147267 -37.12815365 5.6147267 -37 8 C-28.65635153 13.87847961 -20.89426652 13.5681856 -11 13 C-6.99625853 12.12666262 -3.95011695 10.95011695 -1 8 C-0.93453102 5.48952515 -0.93453102 5.48952515 -2 3 C-10.5839625 -3.49597162 -27.50900949 -3.54513852 -36 3 Z M-38 12 C-37.9688059 14.86734521 -37.9688059 14.86734521 -37 18 C-29.30469629 24.32724972 -20.4535899 23.52467892 -11 23 C-6.95136118 22.21002169 -4.01582934 20.98408468 -1 18.0625 C0.290849 15.78214728 0.290849 15.78214728 0 12 C-0.76957031 12.32484375 -0.76957031 12.32484375 -1.5546875 12.65625 C-12.88481673 16.77629699 -26.86010876 16.70226565 -38 12 Z M-38 22 C-37.9688059 24.86734521 -37.9688059 24.86734521 -37 28 C-29.30469629 34.32724972 -20.4535899 33.52467892 -11 33 C-6.95136118 32.21002169 -4.01582934 30.98408468 -1 28.0625 C0.290849 25.78214728 0.290849 25.78214728 0 22 C-0.76957031 22.32484375 -0.76957031 22.32484375 -1.5546875 22.65625 C-12.88481673 26.77629699 -26.86010876 26.70226565 -38 22 Z M-38 32 C-37.42293038 36.28057407 -37.42293038 36.28057407 -34.1875 39.25 C-26.72833155 43.34522974 -16.51925426 43.07692766 -8.27734375 41.46875 C-4.48362692 40.16399505 -1.81737265 38.63474531 0 35 C0 34.01 0 33.02 0 32 C-0.76957031 32.32484375 -0.76957031 32.32484375 -1.5546875 32.65625 C-12.88481673 36.77629699 -26.86010876 36.70226565 -38 32 Z " fill="#000000" transform="translate(44,4)"/>
</svg>
