<?xml version="1.0" encoding="UTF-8"?>
<svg version="1.1" xmlns="http://www.w3.org/2000/svg" width="50" height="50">
<path d="M0 0 C15.18 0 30.36 0 46 0 C46 12.54 46 25.08 46 38 C30.82 38 15.64 38 0 38 C0 25.46 0 12.92 0 0 Z M2 3 C2 5.97 2 8.94 2 12 C15.86 12 29.72 12 44 12 C44 9.03 44 6.06 44 3 C42.10376798 1.10376798 39.33629641 1.87102374 36.8137207 1.86105347 C35.94706787 1.8630777 35.08041504 1.86510193 34.1875 1.8671875 C33.30344482 1.86623077 32.41938965 1.86527405 31.50854492 1.86428833 C29.63557871 1.86360649 27.76261014 1.86546107 25.88964844 1.86962891 C23.01231612 1.87497711 20.13513992 1.86968407 17.2578125 1.86328125 C15.44270799 1.86394203 13.62760357 1.86522319 11.8125 1.8671875 C10.51252075 1.86415115 10.51252075 1.86415115 9.1862793 1.86105347 C5.27996781 1.48739586 5.27996781 1.48739586 2 3 Z M2 14 C2 21.26 2 28.52 2 36 C15.86 36 29.72 36 44 36 C44 28.74 44 21.48 44 14 C30.14 14 16.28 14 2 14 Z " fill="#000000" transform="translate(2,6)"/>
<path d="M0 0 C7.92 0 15.84 0 24 0 C24 1.98 24 3.96 24 6 C16.08 6 8.16 6 0 6 C0 4.02 0 2.04 0 0 Z M2 2 C2 2.66 2 3.32 2 4 C8.6 4 15.2 4 22 4 C22 3.34 22 2.68 22 2 C15.4 2 8.8 2 2 2 Z " fill="#000000" transform="translate(19,10)"/>
<path d="M0 0 C7.26 0 14.52 0 22 0 C22 2.31 22 4.62 22 7 C14.74 7 7.48 7 0 7 C0 4.69 0 2.38 0 0 Z M2 2 C2 2.99 2 3.98 2 5 C7.94 5 13.88 5 20 5 C20 4.01 20 3.02 20 2 C14.06 2 8.12 2 2 2 Z " fill="#000000" transform="translate(7,32)"/>
<path d="M0 0 C7.26 0 14.52 0 22 0 C22 2.31 22 4.62 22 7 C14.74 7 7.48 7 0 7 C0 4.69 0 2.38 0 0 Z M2 2 C2 2.99 2 3.98 2 5 C7.94 5 13.88 5 20 5 C20 4.01 20 3.02 20 2 C14.06 2 8.12 2 2 2 Z " fill="#000000" transform="translate(7,23)"/>
<path d="M0 0 C3.63 0 7.26 0 11 0 C11 5.28 11 10.56 11 16 C7.37 16 3.74 16 0 16 C0 10.72 0 5.44 0 0 Z M2 2 C2 5.96 2 9.92 2 14 C4.31 14 6.62 14 9 14 C9 10.04 9 6.08 9 2 C6.69 2 4.38 2 2 2 Z " fill="#000000" transform="translate(32,23)"/>
<path d="M0 0 C1.32 0 2.64 0 4 0 C4 1.32 4 2.64 4 4 C2.68 4 1.36 4 0 4 C0 2.68 0 1.36 0 0 Z " fill="#000000" transform="translate(12,11)"/>
<path d="M0 0 C1.32 0 2.64 0 4 0 C4 1.32 4 2.64 4 4 C2.68 4 1.36 4 0 4 C0 2.68 0 1.36 0 0 Z " fill="#000000" transform="translate(6,11)"/>
</svg>
