<svg xmlns="http://www.w3.org/2000/svg" xml:space="preserve" style="enable-background:new 0 0 500 500" viewBox="0 0 500 500"><path d="M0 0h500v500H0z" style="fill:#fff"/><path d="M459.373 374.536v-2.561h-1.799a10.716 10.716 0 0 0-.79-2.961l1.555-.897-1.281-2.218-1.556.898a10.858 10.858 0 0 0-2.168-2.167l.899-1.555-2.219-1.281-.898 1.554a10.765 10.765 0 0 0-2.963-.79v-1.798h-2.563v1.798c-1.04.123-2.035.392-2.963.79l-.898-1.554-2.219 1.281.898 1.555a10.832 10.832 0 0 0-2.168 2.167l-1.556-.898-1.281 2.218 1.555.897a10.672 10.672 0 0 0-.79 2.961h-1.799v2.561h1.799c.123 1.039.393 2.034.79 2.961l-1.555.897 1.281 2.218 1.556-.898a10.858 10.858 0 0 0 2.168 2.167l-.898 1.555 2.219 1.28.898-1.554a10.73 10.73 0 0 0 2.963.79v1.798h2.563v-1.798a10.695 10.695 0 0 0 2.963-.79l.898 1.554 2.219-1.28-.899-1.555a10.832 10.832 0 0 0 2.168-2.167l1.556.898 1.281-2.218-1.555-.897c.398-.927.667-1.921.79-2.961h1.799zm-12.503 7.876c-5.06 0-9.162-4.099-9.162-9.156s4.102-9.156 9.162-9.156c5.06 0 9.162 4.099 9.162 9.156s-4.102 9.156-9.162 9.156z" style="fill:#cccece"/><path d="M453.754 373.256c0 3.8-3.082 6.88-6.884 6.88a6.882 6.882 0 0 1-6.884-6.88c0-3.8 3.082-6.88 6.884-6.88a6.882 6.882 0 0 1 6.884 6.88zM453.64 200.326v-2.561h-1.799a10.682 10.682 0 0 0-.79-2.961l1.555-.897-1.281-2.218-1.556.898a10.858 10.858 0 0 0-2.168-2.167l.899-1.555-2.219-1.281-.898 1.554a10.73 10.73 0 0 0-2.963-.79v-1.798h-2.563v1.798c-1.04.123-2.035.392-2.963.79l-.898-1.554-2.219 1.281.899 1.555a10.832 10.832 0 0 0-2.168 2.167l-1.556-.898-1.281 2.218 1.555.897a10.672 10.672 0 0 0-.79 2.961h-1.799v2.561h1.799c.123 1.039.393 2.034.79 2.961l-1.555.897 1.281 2.218 1.556-.898a10.858 10.858 0 0 0 2.168 2.167l-.899 1.555 2.219 1.28.898-1.554a10.73 10.73 0 0 0 2.963.79v1.798h2.563v-1.798a10.695 10.695 0 0 0 2.963-.79l.898 1.554 2.219-1.28-.899-1.555a10.832 10.832 0 0 0 2.168-2.167l1.556.898 1.281-2.218-1.555-.897c.398-.927.667-1.922.79-2.961h1.799zm-12.503 7.876c-5.06 0-9.162-4.1-9.162-9.156s4.102-9.156 9.162-9.156c5.06 0 9.162 4.1 9.162 9.156s-4.102 9.156-9.162 9.156z" style="fill:#cccece"/><ellipse cx="441.137" cy="199.045" rx="6.884" ry="6.88" style="fill:#cccece"/><path d="M358.936 143.186v-2.561h-1.799a10.716 10.716 0 0 0-.79-2.961l1.555-.897-1.281-2.218-1.556.898a10.858 10.858 0 0 0-2.168-2.167l.898-1.555-2.219-1.281-.898 1.554a10.765 10.765 0 0 0-2.963-.79v-1.798h-2.563v1.798c-1.04.123-2.035.392-2.963.79l-.898-1.554-2.219 1.281.899 1.555a10.832 10.832 0 0 0-2.168 2.167l-1.556-.898-1.281 2.218 1.555.897a10.672 10.672 0 0 0-.79 2.961h-1.799v2.561h1.799c.123 1.039.392 2.034.79 2.961l-1.555.897 1.281 2.218 1.556-.898a10.858 10.858 0 0 0 2.168 2.167l-.899 1.555 2.219 1.281.898-1.554a10.73 10.73 0 0 0 2.963.79v1.798h2.563v-1.798a10.695 10.695 0 0 0 2.963-.79l.898 1.554 2.219-1.281-.898-1.555a10.832 10.832 0 0 0 2.168-2.167l1.556.898 1.281-2.218-1.555-.897c.398-.927.667-1.921.79-2.961h1.799zm-12.503 7.875c-5.06 0-9.162-4.099-9.162-9.156s4.102-9.156 9.162-9.156c5.06 0 9.162 4.1 9.162 9.156s-4.102 9.156-9.162 9.156z" style="fill:#cccece"/><ellipse cx="346.433" cy="141.905" rx="6.884" ry="6.88" style="fill:#cccece"/><path d="M312.227 157.815v-2.561h-1.799a10.716 10.716 0 0 0-.79-2.961l1.555-.897-1.281-2.218-1.556.898a10.858 10.858 0 0 0-2.168-2.167l.899-1.555-2.219-1.28-.898 1.554a10.72 10.72 0 0 0-2.963-.79v-1.798h-2.563v1.798c-1.04.123-2.035.392-2.963.79l-.898-1.554-2.219 1.28.899 1.555a10.832 10.832 0 0 0-2.168 2.167l-1.556-.898-1.281 2.218 1.555.897a10.672 10.672 0 0 0-.79 2.961h-1.799v2.561h1.799c.123 1.039.393 2.034.79 2.961l-1.555.897 1.281 2.218 1.556-.898a10.858 10.858 0 0 0 2.168 2.167l-.899 1.555 2.219 1.281.898-1.554a10.73 10.73 0 0 0 2.963.79v1.798h2.563v-1.798a10.695 10.695 0 0 0 2.963-.79l.898 1.554 2.219-1.281-.899-1.555a10.832 10.832 0 0 0 2.168-2.167l1.556.898 1.281-2.218-1.555-.897c.398-.927.667-1.921.79-2.961h1.799zm-12.503 7.876c-5.06 0-9.162-4.099-9.162-9.156s4.102-9.156 9.162-9.156c5.06 0 9.162 4.099 9.162 9.156s-4.102 9.156-9.162 9.156z" style="fill:#e0e0e0"/><ellipse cx="299.724" cy="156.535" rx="6.884" ry="6.88" style="fill:#e0e0e0"/><path d="M143.129 170.156v-2.561h-1.799a10.716 10.716 0 0 0-.79-2.961l1.555-.897-1.281-2.218-1.556.898a10.858 10.858 0 0 0-2.168-2.167l.899-1.555-2.219-1.281-.898 1.554a10.73 10.73 0 0 0-2.963-.79v-1.798h-2.563v1.798c-1.04.123-2.035.392-2.963.79l-.898-1.554-2.219 1.281.898 1.555a10.858 10.858 0 0 0-2.168 2.167l-1.556-.898-1.281 2.218 1.555.897a10.672 10.672 0 0 0-.79 2.961h-1.799v2.561h1.799c.123 1.039.393 2.034.79 2.961l-1.555.897 1.281 2.218 1.556-.898a10.858 10.858 0 0 0 2.168 2.167l-.898 1.555 2.219 1.281.898-1.554a10.73 10.73 0 0 0 2.963.79v1.798h2.563v-1.798a10.695 10.695 0 0 0 2.963-.79l.898 1.554 2.219-1.281-.899-1.555a10.832 10.832 0 0 0 2.168-2.167l1.556.898 1.281-2.218-1.555-.897c.398-.927.667-1.921.79-2.961h1.799zm-12.503 7.876c-5.06 0-9.162-4.099-9.162-9.156s4.102-9.156 9.162-9.156c5.06 0 9.162 4.099 9.162 9.156 0 5.056-4.102 9.156-9.162 9.156z" style="fill:#cccece"/><path d="M137.51 168.876c0 3.8-3.082 6.88-6.884 6.88a6.882 6.882 0 0 1-6.884-6.88c0-3.8 3.082-6.88 6.884-6.88a6.881 6.881 0 0 1 6.884 6.88zM54.459 211.494v-2.561H52.66a10.716 10.716 0 0 0-.79-2.961l1.555-.897-1.281-2.218-1.556.898a10.858 10.858 0 0 0-2.168-2.167l.899-1.555-2.219-1.281-.898 1.554a10.73 10.73 0 0 0-2.963-.79v-1.798h-2.563v1.798c-1.04.123-2.035.392-2.963.79l-.898-1.554-2.219 1.281.899 1.555a10.858 10.858 0 0 0-2.168 2.167l-1.556-.898-1.281 2.218 1.555.897a10.672 10.672 0 0 0-.79 2.961h-1.799v2.561h1.799c.123 1.039.393 2.034.79 2.961l-1.555.897 1.281 2.218 1.556-.898a10.858 10.858 0 0 0 2.168 2.167l-.899 1.555 2.219 1.281.898-1.554a10.73 10.73 0 0 0 2.963.79v1.798h2.563v-1.798a10.695 10.695 0 0 0 2.963-.79l.898 1.554 2.219-1.281-.899-1.555a10.832 10.832 0 0 0 2.168-2.167l1.556.898 1.281-2.218-1.555-.897c.398-.927.667-1.921.79-2.961h1.799zm-12.503 7.876c-5.06 0-9.162-4.1-9.162-9.156 0-5.057 4.102-9.156 9.162-9.156 5.06 0 9.162 4.099 9.162 9.156 0 5.056-4.102 9.156-9.162 9.156z" style="fill:#cccece"/><ellipse cx="41.956" cy="210.213" rx="6.884" ry="6.88" style="fill:#cccece"/><path d="M129.438 353.027v-2.561h-1.799a10.716 10.716 0 0 0-.79-2.961l1.555-.897-1.281-2.218-1.556.898a10.858 10.858 0 0 0-2.168-2.167l.899-1.555-2.219-1.28-.898 1.554a10.72 10.72 0 0 0-2.963-.79v-1.798h-2.562v1.798c-1.04.123-2.035.392-2.963.79l-.898-1.554-2.219 1.28.898 1.555a10.832 10.832 0 0 0-2.168 2.167l-1.556-.898-1.281 2.218 1.555.897a10.672 10.672 0 0 0-.79 2.961h-1.799v2.561h1.799c.123 1.039.393 2.034.79 2.961l-1.555.897 1.281 2.218 1.556-.898a10.858 10.858 0 0 0 2.168 2.167l-.898 1.555 2.219 1.281.898-1.554a10.73 10.73 0 0 0 2.963.79v1.798h2.562v-1.798a10.695 10.695 0 0 0 2.963-.79l.898 1.554 2.219-1.281-.899-1.555a10.832 10.832 0 0 0 2.168-2.167l1.556.898 1.281-2.218-1.555-.897c.398-.927.667-1.921.79-2.961h1.799zm-12.503 7.876c-5.06 0-9.162-4.099-9.162-9.156s4.102-9.156 9.162-9.156c5.06 0 9.162 4.099 9.162 9.156 0 5.056-4.102 9.156-9.162 9.156z" style="fill:#cccece"/><ellipse cx="116.935" cy="351.746" rx="6.884" ry="6.88" style="fill:#cccece"/><path d="M275.093 370.325v-4.453h-3.129a18.624 18.624 0 0 0-1.374-5.149l2.704-1.56-2.228-3.857-2.707 1.562a18.831 18.831 0 0 0-3.771-3.768l1.563-2.705-3.859-2.227-1.561 2.703a18.624 18.624 0 0 0-5.152-1.373v-3.127h-4.456v3.127a18.624 18.624 0 0 0-5.152 1.373l-1.561-2.703-3.859 2.227 1.563 2.705a18.883 18.883 0 0 0-3.771 3.768l-2.706-1.562-2.228 3.857 2.704 1.56a18.605 18.605 0 0 0-1.374 5.149h-3.129v4.453h3.129a18.615 18.615 0 0 0 1.374 5.149l-2.704 1.56 2.228 3.857 2.706-1.562a18.852 18.852 0 0 0 3.77 3.768l-1.563 2.705 3.859 2.227 1.561-2.703a18.624 18.624 0 0 0 5.152 1.373v3.127h4.456v-3.127a18.624 18.624 0 0 0 5.152-1.373l1.561 2.703 3.859-2.227-1.563-2.705a18.857 18.857 0 0 0 3.771-3.768l2.707 1.562 2.228-3.857-2.704-1.56a18.605 18.605 0 0 0 1.374-5.149h3.13zm-21.742 13.695c-8.799 0-15.932-7.129-15.932-15.922 0-8.794 7.133-15.922 15.932-15.922s15.932 7.129 15.932 15.922c.001 8.794-7.132 15.922-15.932 15.922z" style="fill:#cccece"/><path d="M296.59 207.488v-3.377h-2.373a14.101 14.101 0 0 0-1.042-3.904l2.051-1.183-1.689-2.924-2.052 1.184a14.28 14.28 0 0 0-2.859-2.857l1.185-2.051-2.926-1.688-1.184 2.049a14.113 14.113 0 0 0-3.906-1.041v-2.371h-3.379v2.371a14.113 14.113 0 0 0-3.906 1.041l-1.184-2.049-2.926 1.688 1.185 2.051a14.307 14.307 0 0 0-2.859 2.857l-2.052-1.184-1.689 2.924 2.051 1.183a14.126 14.126 0 0 0-1.042 3.904h-2.373v3.377h2.373a14.126 14.126 0 0 0 1.042 3.904l-2.051 1.183 1.689 2.924 2.052-1.184a14.307 14.307 0 0 0 2.859 2.857l-1.185 2.051 2.926 1.688 1.184-2.049c1.223.524 2.535.879 3.906 1.041v2.371h3.379v-2.371a14.113 14.113 0 0 0 3.906-1.041l1.184 2.049 2.926-1.688-1.185-2.051a14.307 14.307 0 0 0 2.859-2.857l2.052 1.184 1.689-2.924-2.051-1.183a14.126 14.126 0 0 0 1.042-3.904h2.373zm-15.506 10.346c-7.444.587-13.609-5.575-13.022-13.014.462-5.852 5.206-10.593 11.062-11.055 7.444-.587 13.609 5.575 13.022 13.014-.462 5.852-5.206 10.594-11.062 11.055zM189.044 333.497v-3.377h-2.373a14.092 14.092 0 0 0-1.042-3.904l2.051-1.183-1.689-2.924-2.052 1.184a14.307 14.307 0 0 0-2.859-2.857l1.185-2.051-2.926-1.688-1.184 2.049a14.113 14.113 0 0 0-3.906-1.041v-2.371h-3.379v2.371a14.113 14.113 0 0 0-3.906 1.041l-1.184-2.049-2.926 1.688 1.185 2.051a14.307 14.307 0 0 0-2.859 2.857l-2.052-1.184-1.689 2.924 2.051 1.183a14.136 14.136 0 0 0-1.042 3.904h-2.373v3.377h2.373c.163 1.37.518 2.682 1.042 3.904l-2.051 1.183 1.689 2.924 2.052-1.184a14.28 14.28 0 0 0 2.859 2.857l-1.185 2.051 2.926 1.688 1.184-2.049c1.223.524 2.535.879 3.906 1.041v2.371h3.379v-2.371a14.113 14.113 0 0 0 3.906-1.041l1.184 2.049 2.926-1.688-1.185-2.051a14.307 14.307 0 0 0 2.859-2.857l2.052 1.184 1.689-2.924-2.051-1.183a14.136 14.136 0 0 0 1.042-3.904h2.373zm-15.506 10.346c-7.444.586-13.609-5.575-13.022-13.014.462-5.852 5.206-10.594 11.062-11.055 7.444-.587 13.609 5.575 13.022 13.014-.462 5.852-5.206 10.593-11.062 11.055zM323.86 113.7v-2.012h-1.414a8.392 8.392 0 0 0-.621-2.326l1.222-.705-1.007-1.743-1.223.705a8.503 8.503 0 0 0-1.703-1.702l.706-1.222-1.743-1.006-.706 1.221a8.395 8.395 0 0 0-2.328-.62v-1.413h-2.013v1.413a8.44 8.44 0 0 0-2.328.62l-.705-1.221-1.743 1.006.706 1.222a8.534 8.534 0 0 0-1.704 1.702l-1.223-.705-1.007 1.743 1.222.705a8.427 8.427 0 0 0-.621 2.326h-1.414v2.012h1.414c.097.817.308 1.598.621 2.326l-1.222.705 1.007 1.743 1.223-.705a8.482 8.482 0 0 0 1.704 1.702l-.706 1.222 1.743 1.006.705-1.221a8.404 8.404 0 0 0 2.328.62v1.413h2.013v-1.413a8.44 8.44 0 0 0 2.328-.62l.706 1.221 1.743-1.006-.706-1.222a8.556 8.556 0 0 0 1.703-1.702l1.223.705 1.007-1.743-1.222-.705c.312-.728.524-1.51.621-2.326h1.414zm-9.239 6.164a7.197 7.197 0 0 1-7.759-7.754c.275-3.487 3.102-6.312 6.591-6.587a7.198 7.198 0 0 1 7.759 7.755c-.275 3.486-3.102 6.311-6.591 6.586zM268.726 418.336v-3.377h-2.373a14.101 14.101 0 0 0-1.042-3.904l2.051-1.183-1.689-2.924-2.052 1.184a14.307 14.307 0 0 0-2.859-2.857l1.185-2.051-2.926-1.688-1.184 2.049a14.113 14.113 0 0 0-3.906-1.041v-2.371h-3.379v2.371a14.113 14.113 0 0 0-3.906 1.041l-1.184-2.049-2.926 1.688 1.185 2.051a14.307 14.307 0 0 0-2.859 2.857l-2.052-1.184-1.689 2.924 2.051 1.183a14.136 14.136 0 0 0-1.042 3.904h-2.373v3.377h2.373a14.126 14.126 0 0 0 1.042 3.904l-2.051 1.183 1.689 2.924 2.052-1.184a14.307 14.307 0 0 0 2.859 2.857l-1.185 2.051 2.926 1.688 1.184-2.049c1.223.524 2.535.879 3.906 1.041v2.371h3.379v-2.371a14.113 14.113 0 0 0 3.906-1.041l1.184 2.049 2.926-1.688-1.185-2.051c.746-.363 1.802-1.448 2.859-2.857l2.052 1.184 1.689-2.924-2.051-1.183a14.136 14.136 0 0 0 1.042-3.904h2.373zm-15.506 10.346c-7.444.587-13.609-5.575-13.022-13.014.462-5.852 5.206-10.593 11.062-11.055 7.444-.587 13.609 5.575 13.022 13.014-.462 5.852-5.206 10.594-11.062 11.055zM359.816 385.435v-3.377h-2.373a14.136 14.136 0 0 0-1.042-3.904l2.051-1.183-1.689-2.924-2.052 1.184a14.28 14.28 0 0 0-2.859-2.857l1.185-2.051-2.926-1.688-1.184 2.049a14.113 14.113 0 0 0-3.906-1.041v-2.371h-3.379v2.371a14.113 14.113 0 0 0-3.906 1.041l-1.184-2.049-2.926 1.688 1.185 2.051a14.307 14.307 0 0 0-2.859 2.857l-2.052-1.184-1.689 2.924 2.051 1.183a14.136 14.136 0 0 0-1.042 3.904h-2.373v3.377h2.373c.162 1.37.517 2.682 1.042 3.904l-2.051 1.183 1.689 2.924 2.052-1.184a14.28 14.28 0 0 0 2.859 2.857l-1.185 2.051 2.926 1.688 1.184-2.049c1.223.524 2.535.879 3.906 1.041v2.371h3.379v-2.371a14.113 14.113 0 0 0 3.906-1.041l1.184 2.049 2.926-1.688-1.185-2.051c.746-.363 1.802-1.448 2.859-2.857l2.052 1.184 1.689-2.924-2.051-1.183a14.136 14.136 0 0 0 1.042-3.904h2.373zm-15.506 10.347c-7.444.587-13.609-5.575-13.022-13.014.462-5.852 5.206-10.593 11.062-11.055 7.444-.587 13.609 5.575 13.022 13.014-.462 5.852-5.206 10.593-11.062 11.055zM343.33 215.512v-3.377h-2.373a14.136 14.136 0 0 0-1.042-3.904l2.051-1.183-1.689-2.924-2.052 1.184a14.28 14.28 0 0 0-2.859-2.857l1.185-2.051-2.926-1.688-1.184 2.049a14.113 14.113 0 0 0-3.906-1.041v-2.371h-3.379v2.371a14.113 14.113 0 0 0-3.906 1.041l-1.184-2.049-2.926 1.688 1.185 2.051a14.307 14.307 0 0 0-2.859 2.857l-2.052-1.184-1.689 2.924 2.051 1.183a14.126 14.126 0 0 0-1.042 3.904h-2.373v3.377h2.373c.162 1.37.517 2.682 1.042 3.904l-2.051 1.183 1.689 2.924 2.052-1.184a14.28 14.28 0 0 0 2.859 2.857l-1.185 2.051 2.926 1.688 1.184-2.049c1.223.524 2.535.879 3.906 1.041v2.371h3.379v-2.371a14.113 14.113 0 0 0 3.906-1.041l1.184 2.049 2.926-1.688-1.185-2.051c.746-.363 1.802-1.448 2.859-2.857l2.052 1.184 1.689-2.924-2.051-1.183a14.126 14.126 0 0 0 1.042-3.904h2.373zm-15.506 10.346c-7.444.587-13.609-5.575-13.022-13.014.462-5.852 5.206-10.593 11.062-11.055 7.444-.587 13.609 5.575 13.022 13.014-.462 5.852-5.206 10.593-11.062 11.055zM200.292 109.152v-1.801h-1.265a7.522 7.522 0 0 0-.556-2.082l1.094-.631-.901-1.56-1.095.632a7.62 7.62 0 0 0-1.525-1.524l.632-1.094-1.561-.901-.632 1.093a7.525 7.525 0 0 0-2.084-.555v-1.265h-1.802v1.265a7.562 7.562 0 0 0-2.083.555l-.632-1.093-1.561.901.632 1.094a7.62 7.62 0 0 0-1.525 1.524l-1.094-.632-.901 1.56 1.094.631a7.522 7.522 0 0 0-.556 2.082h-1.266v1.801h1.266c.087.731.276 1.43.556 2.082l-1.094.631.901 1.56 1.094-.632a7.62 7.62 0 0 0 1.525 1.524l-.632 1.094 1.561.901.632-1.093c.652.28 1.352.469 2.083.555v1.265h1.802v-1.265a7.578 7.578 0 0 0 2.084-.555l.632 1.093 1.561-.901-.632-1.094c.398-.193.961-.772 1.525-1.524l1.095.632.901-1.56-1.094-.631c.28-.652.469-1.351.556-2.082h1.265zm-8.271 5.519a6.442 6.442 0 0 1-6.945-6.941c.246-3.121 2.777-5.65 5.9-5.896a6.442 6.442 0 0 1 6.945 6.941c-.246 3.121-2.776 5.65-5.9 5.896z" style="fill:#e0e0e0"/><g style="opacity:.2"><path d="M237.193 311.706v-4.454h-3.129a18.624 18.624 0 0 0-1.374-5.149l2.704-1.56-2.228-3.857-2.706 1.562a18.852 18.852 0 0 0-3.77-3.768l1.563-2.705-3.859-2.227-1.561 2.703a18.624 18.624 0 0 0-5.152-1.373v-3.127h-4.456v3.127a18.624 18.624 0 0 0-5.152 1.373l-1.561-2.703-3.859 2.227 1.563 2.705a18.852 18.852 0 0 0-3.77 3.768l-2.706-1.562-2.228 3.857 2.704 1.56a18.605 18.605 0 0 0-1.374 5.149h-3.129v4.454h3.129a18.624 18.624 0 0 0 1.374 5.149l-2.704 1.56 2.228 3.857 2.707-1.562a18.852 18.852 0 0 0 3.77 3.768l-1.563 2.705 3.859 2.227 1.561-2.703a18.624 18.624 0 0 0 5.152 1.373v3.127h4.456v-3.127a18.634 18.634 0 0 0 5.152-1.373l1.561 2.703 3.859-2.227-1.563-2.705a18.852 18.852 0 0 0 3.77-3.768l2.706 1.562 2.228-3.857-2.704-1.56a18.605 18.605 0 0 0 1.374-5.149h3.128zm-21.742 13.696c-8.799 0-15.932-7.129-15.932-15.922 0-8.794 7.133-15.922 15.932-15.922s15.932 7.129 15.932 15.922c0 8.793-7.133 15.922-15.932 15.922z" style="fill:#fff"/><ellipse cx="215.451" cy="309.479" rx="11.971" ry="11.964" style="fill:#fff" transform="translate(-.523 .364)"/></g><path d="M322.105 280.61v-4.453h-3.129a18.624 18.624 0 0 0-1.374-5.149l2.704-1.56-2.228-3.857-2.706 1.562a18.857 18.857 0 0 0-3.771-3.768l1.563-2.705-3.859-2.227-1.561 2.703a18.624 18.624 0 0 0-5.152-1.373v-3.127h-4.456v3.127a18.624 18.624 0 0 0-5.152 1.373l-1.561-2.703-3.859 2.227 1.563 2.705a18.883 18.883 0 0 0-3.771 3.768l-2.706-1.562-2.228 3.857 2.704 1.56a18.605 18.605 0 0 0-1.374 5.149h-3.129v4.453h3.129a18.615 18.615 0 0 0 1.374 5.149l-2.704 1.56 2.228 3.857 2.706-1.562a18.831 18.831 0 0 0 3.771 3.768l-1.563 2.705 3.859 2.227 1.561-2.703a18.624 18.624 0 0 0 5.152 1.373v3.127h4.456v-3.127a18.624 18.624 0 0 0 5.152-1.373l1.561 2.703 3.859-2.227-1.563-2.705a18.857 18.857 0 0 0 3.771-3.768l2.706 1.562 2.228-3.857-2.704-1.56a18.605 18.605 0 0 0 1.374-5.149h3.129zm-21.741 13.696c-8.799 0-15.932-7.129-15.932-15.922 0-8.794 7.133-15.922 15.932-15.922s15.932 7.129 15.932 15.922c0 8.793-7.133 15.922-15.932 15.922z" style="fill:#e0e0e0"/><ellipse cx="300.364" cy="278.383" rx="11.964" ry="11.971" style="fill:#e0e0e0" transform="rotate(-89.903 300.371 278.383)"/><path d="M189.785 269.957v-4.453h-3.129a18.615 18.615 0 0 0-1.374-5.149l2.704-1.56-2.228-3.857-2.706 1.562a18.831 18.831 0 0 0-3.771-3.768l1.563-2.705-3.859-2.227-1.561 2.703a18.624 18.624 0 0 0-5.152-1.373v-3.127h-4.456v3.127a18.624 18.624 0 0 0-5.152 1.373l-1.561-2.703-3.859 2.227 1.563 2.705a18.826 18.826 0 0 0-3.77 3.768l-2.706-1.562-2.228 3.857 2.704 1.56a18.605 18.605 0 0 0-1.374 5.149h-3.129v4.453h3.129a18.615 18.615 0 0 0 1.374 5.149l-2.704 1.56 2.228 3.857 2.706-1.562a18.852 18.852 0 0 0 3.77 3.768l-1.563 2.705 3.859 2.227 1.561-2.703a18.624 18.624 0 0 0 5.152 1.373v3.127h4.456v-3.127a18.624 18.624 0 0 0 5.152-1.373l1.561 2.703 3.859-2.227-1.563-2.705a18.883 18.883 0 0 0 3.771-3.768l2.706 1.562 2.228-3.857-2.704-1.56a18.605 18.605 0 0 0 1.374-5.149h3.129zm-21.742 13.696c-8.799 0-15.932-7.129-15.932-15.922 0-8.794 7.133-15.922 15.932-15.922s15.932 7.129 15.932 15.922c0 8.793-7.133 15.922-15.932 15.922z" style="fill:#e0e0e0"/><ellipse cx="168.043" cy="267.731" rx="11.964" ry="11.971" style="fill:#e0e0e0" transform="rotate(-89.903 168.05 267.732)"/><path d="M253.095 454.566c-.943 0-1.884-.007-2.823-.021l.008-.528c1.922.028 3.855.028 5.776-.002l.008.528c-.988.015-1.978.023-2.969.023zm-8.612-.195c-1.915-.087-3.86-.206-5.781-.353l.04-.526c1.915.146 3.855.264 5.764.352l-.023.527zm17.371-.008-.025-.527c1.91-.088 3.849-.208 5.765-.356l.04.526c-1.92.149-3.865.269-5.78.357zm-28.918-.875a187.041 187.041 0 0 1-5.748-.709l.073-.523c1.897.264 3.825.502 5.731.707l-.056.525zm40.465-.015-.057-.525c1.905-.206 3.833-.446 5.731-.711l.073.523c-1.903.266-3.836.506-5.747.713zm-51.936-1.58a187.466 187.466 0 0 1-5.693-1.065l.105-.518c1.879.382 3.789.739 5.677 1.062l-.089.521zm63.405-.025-.09-.521c1.89-.325 3.799-.684 5.676-1.066l.105.518a187.58 187.58 0 0 1-5.691 1.069zm-74.755-2.283a185.98 185.98 0 0 1-5.615-1.419l.137-.509c1.856.5 3.74.976 5.599 1.415l-.121.513zm86.102-.033-.122-.513c1.869-.443 3.752-.92 5.598-1.419l.138.509c-1.851.5-3.74.979-5.614 1.423zm-97.284-2.979a186.933 186.933 0 0 1-5.534-1.774l.169-.5c1.827.618 3.684 1.212 5.518 1.769l-.153.505zm108.465-.042-.154-.505a185.781 185.781 0 0 0 5.498-1.767l.169.5a188.836 188.836 0 0 1-5.513 1.772zm-119.473-3.678a186.848 186.848 0 0 1-5.408-2.116l.2-.489c1.779.728 3.593 1.438 5.393 2.11l-.185.495zm130.442-.038-.185-.495c1.794-.671 3.603-1.38 5.376-2.107l.2.489c-1.777.729-3.591 1.44-5.391 2.113zm-141.188-4.364a187.971 187.971 0 0 1-5.262-2.449l.23-.475c1.725.836 3.49 1.658 5.247 2.443l-.215.481zm151.886-.024-.216-.481c1.749-.782 3.505-1.6 5.22-2.432l.231.475c-1.72.834-3.481 1.654-5.235 2.438zm-162.328-5.038c-1.7-.891-3.415-1.823-5.096-2.772l.26-.46c1.676.946 3.385 1.876 5.081 2.764l-.245.468zm172.722-.001-.246-.467c1.687-.884 3.39-1.811 5.062-2.754l.26.46a193.099 193.099 0 0 1-5.076 2.761zm10.064-5.68-.273-.452c1.632-.989 3.275-2.02 4.883-3.064l.288.442a182.63 182.63 0 0 1-4.898 3.074zm-192.888-.02a188.501 188.501 0 0 1-4.911-3.083l.288-.442a187.42 187.42 0 0 0 4.897 3.074l-.274.451zm202.586-6.277-.301-.434a186.766 186.766 0 0 0 4.686-3.362l.315.424a181.145 181.145 0 0 1-4.7 3.372zm-212.308-.04a188.098 188.098 0 0 1-4.708-3.38l.315-.424a187.795 187.795 0 0 0 4.695 3.371l-.302.433zm221.602-6.847-.328-.414a183.18 183.18 0 0 0 4.471-3.647l.34.404a187.006 187.006 0 0 1-4.483 3.657zm-230.91-.057a187.737 187.737 0 0 1-4.487-3.664l.34-.403a191.71 191.71 0 0 0 4.475 3.654l-.328.413zm239.763-7.395-.353-.393a191.12 191.12 0 0 0 4.239-3.918l.364.382a183.236 183.236 0 0 1-4.25 3.929zm-248.621-.069a187.508 187.508 0 0 1-4.251-3.933l.365-.381a186.41 186.41 0 0 0 4.239 3.921l-.353.393zm257.001-7.918-.376-.37a188.719 188.719 0 0 0 3.99-4.173l.388.359a196.932 196.932 0 0 1-4.002 4.184zm-265.378-.076a188.614 188.614 0 0 1-3.998-4.186l.388-.359a185.291 185.291 0 0 0 3.987 4.174l-.377.371zm273.249-8.417-.398-.346a191.218 191.218 0 0 0 3.726-4.413l.408.334a190.144 190.144 0 0 1-3.736 4.425zm-281.113-.076a188.027 188.027 0 0 1-3.73-4.423l.409-.334a187.013 187.013 0 0 0 3.72 4.411l-.399.346zm288.447-8.889-.419-.322a184.737 184.737 0 0 0 3.446-4.637l.429.308a185.203 185.203 0 0 1-3.456 4.651zm-295.768-.069a187.69 187.69 0 0 1-3.448-4.643l.429-.308a186.679 186.679 0 0 0 3.438 4.631l-.419.32zm302.536-9.338-.438-.295a183.968 183.968 0 0 0 3.153-4.844l.447.28a183.428 183.428 0 0 1-3.162 4.859zm-309.286-.052a186.746 186.746 0 0 1-3.152-4.846l.447-.28a185.619 185.619 0 0 0 3.143 4.831l-.438.295zm315.458-9.761-.456-.267c.972-1.657 1.929-3.35 2.846-5.033l.464.253a185.86 185.86 0 0 1-2.854 5.047zm-321.609-.024a188.925 188.925 0 0 1-2.844-5.029l.464-.252c.916 1.68 1.87 3.367 2.836 5.015l-.456.266zm-5.529-10.143a188.414 188.414 0 0 1-2.524-5.193l.479-.224a184.58 184.58 0 0 0 2.517 5.179l-.472.238zm332.688-.015-.471-.238c.864-1.709 1.714-3.46 2.528-5.203l.479.223a187.608 187.608 0 0 1-2.536 5.218zM81.871 341.78a185.521 185.521 0 0 1-2.194-5.337l.492-.193a187.296 187.296 0 0 0 2.187 5.321l-.485.209zm342.478-.069-.486-.208a185.76 185.76 0 0 0 2.198-5.354l.492.193a189.717 189.717 0 0 1-2.204 5.369zM77.646 331.022a185.893 185.893 0 0 1-1.861-5.481l.503-.162a182.011 182.011 0 0 0 1.856 5.466l-.498.177zm350.941-.117-.497-.177a187.206 187.206 0 0 0 1.858-5.484l.502.161a183.454 183.454 0 0 1-1.863 5.5zm-354.491-10.9a186.71 186.71 0 0 1-1.514-5.587l.512-.13c.471 1.854.979 3.728 1.51 5.57l-.508.147zm358.038-.139-.507-.145c.53-1.846 1.036-3.721 1.505-5.573l.512.13c-.47 1.857-.978 3.737-1.51 5.588zm-360.89-11.08c-.414-1.872-.805-3.78-1.161-5.67l.519-.098c.355 1.885.745 3.787 1.158 5.654l-.516.114zm363.734-.141-.516-.113c.413-1.875.801-3.778 1.153-5.655l.519.097c-.353 1.882-.742 3.79-1.156 5.671zM69.099 297.412a185.367 185.367 0 0 1-.805-5.732l.524-.065a184.7 184.7 0 0 0 .803 5.715l-.522.082zm368.014-.143-.522-.081c.294-1.891.563-3.814.798-5.716l.524.065a184.05 184.05 0 0 1-.8 5.732zM67.668 285.927a188.078 188.078 0 0 1-.448-5.77l.527-.033c.119 1.913.269 3.849.447 5.754l-.526.049zm370.868-.145-.526-.048c.177-1.912.326-3.848.443-5.754l.527.032a191.025 191.025 0 0 1-.444 5.77zM66.95 274.374a192.14 192.14 0 0 1-.093-5.788h.528c.002 1.919.033 3.861.092 5.771l-.527.017zm372.295-.144-.528-.016c.059-1.907.088-3.849.088-5.77v-.248h.528v.248c0 1.927-.03 3.873-.088 5.786zM67.469 262.815l-.528-.016c.057-1.921.145-3.866.261-5.782l.527.032c-.116 1.91-.203 3.85-.26 5.766zm371.24-.392c-.06-1.91-.152-3.85-.272-5.766l.527-.033c.121 1.921.212 3.867.273 5.782l-.528.017zM68.167 251.294l-.526-.048c.176-1.914.383-3.85.618-5.755l.524.064a189.77 189.77 0 0 0-.616 5.739zm369.819-.39a184.098 184.098 0 0 0-.628-5.737l.524-.066c.239 1.911.451 3.846.63 5.754l-.526.049zM69.577 239.838l-.522-.081c.294-1.896.621-3.815.975-5.706l.519.097c-.352 1.886-.679 3.8-.972 5.69zm366.976-.386a185.032 185.032 0 0 0-.984-5.687l.519-.098c.356 1.887.689 3.806.987 5.703l-.522.082zm-364.855-10.96-.516-.113c.411-1.874.859-3.769 1.329-5.634l.512.129c-.469 1.86-.914 3.75-1.325 5.618zm362.71-.382a187.593 187.593 0 0 0-1.337-5.615l.512-.13c.474 1.862.926 3.757 1.341 5.631l-.516.114zM74.53 217.284l-.507-.145a183.497 183.497 0 0 1 1.686-5.555l.503.161a181.593 181.593 0 0 0-1.682 5.539zm357.027-.359a184.904 184.904 0 0 0-1.687-5.52l.502-.162a185.98 185.98 0 0 1 1.692 5.536l-.507.146zM78.064 206.263l-.498-.177a184.035 184.035 0 0 1 2.03-5.435l.492.192a189.94 189.94 0 0 0-2.024 5.42zm349.953-.307a183.333 183.333 0 0 0-2.024-5.39l.491-.193a184.364 184.364 0 0 1 2.03 5.405l-.497.178zM82.282 195.491l-.485-.208c.758-1.77 1.554-3.551 2.366-5.295l.479.223a180.611 180.611 0 0 0-2.36 5.28zm341.52-.25a185.6 185.6 0 0 0-2.357-5.256l.479-.223c.812 1.737 1.607 3.51 2.364 5.271l-.486.208zM87.164 185.008l-.471-.238c.868-1.72 1.773-3.448 2.692-5.135l.464.252a188.45 188.45 0 0 0-2.685 5.121zm331.76-.203a186.012 186.012 0 0 0-2.682-5.101l.464-.253a187.082 187.082 0 0 1 2.689 5.116l-.471.238zm-326.233-9.95-.456-.266a188.146 188.146 0 0 1 3.006-4.956l.447.28a188.712 188.712 0 0 0-2.997 4.942zm320.712-.168a188.013 188.013 0 0 0-2.995-4.927l.447-.281a187.396 187.396 0 0 1 3.004 4.94l-.456.268zm-314.565-9.619-.438-.294a188.4 188.4 0 0 1 3.307-4.757l.429.308a182.28 182.28 0 0 0-3.298 4.743zm308.423-.139a183.316 183.316 0 0 0-3.296-4.733l.429-.308a186.949 186.949 0 0 1 3.306 4.747l-.439.294zm-301.683-9.243-.419-.321a188.328 188.328 0 0 1 3.595-4.542l.409.334a187.781 187.781 0 0 0-3.585 4.529zm294.945-.12a188.433 188.433 0 0 0-3.584-4.522l.408-.334a185.09 185.09 0 0 1 3.594 4.535l-.418.321zm-287.637-8.826-.399-.346a187.112 187.112 0 0 1 3.868-4.31l.388.358c-1.3 1.403-2.597 2.85-3.857 4.298zm280.33-.106a190.346 190.346 0 0 0-3.858-4.293l.388-.359a193.892 193.892 0 0 1 3.869 4.305l-.399.347zm-272.486-8.368-.376-.37a188.046 188.046 0 0 1 4.126-4.062l.365.382a186.99 186.99 0 0 0-4.115 4.05zm264.637-.097a193.885 193.885 0 0 0-4.117-4.048l.364-.382a192.627 192.627 0 0 1 4.13 4.059l-.377.371zm-256.285-7.875-.353-.393c1.43-1.283 2.9-2.561 4.368-3.798l.34.404a188.533 188.533 0 0 0-4.355 3.787zm247.927-.092a187.688 187.688 0 0 0-4.361-3.787l.34-.404a188.756 188.756 0 0 1 4.374 3.797l-.353.394zm-239.102-7.346-.328-.414a188.549 188.549 0 0 1 4.593-3.52l.315.424a187.482 187.482 0 0 0-4.58 3.51zm230.263-.092a187.934 187.934 0 0 0-4.588-3.511l.315-.424a189.003 189.003 0 0 1 4.601 3.521l-.328.414zm-220.997-6.784-.302-.434a186.289 186.289 0 0 1 4.801-3.228l.288.442a187.86 187.86 0 0 0-4.787 3.22zm211.713-.094a188.57 188.57 0 0 0-4.799-3.221l.288-.443c1.61 1.045 3.23 2.132 4.813 3.23l-.302.434zm-202.042-6.194-.274-.451c1.64-.995 3.319-1.979 4.99-2.923l.26.459a186.903 186.903 0 0 0-4.976 2.915zm192.345-.097a186.532 186.532 0 0 0-4.992-2.917l.259-.46c1.674.943 3.358 1.927 5.006 2.925l-.273.452zm-182.306-5.576-.245-.467c1.702-.893 3.438-1.77 5.16-2.606l.231.475a183.591 183.591 0 0 0-5.146 2.598zm172.233-.101a187.464 187.464 0 0 0-5.166-2.601l.23-.475c1.734.839 3.477 1.717 5.181 2.608l-.245.468zm-161.865-4.935-.216-.481a187.547 187.547 0 0 1 5.31-2.279l.201.488a187.72 187.72 0 0 0-5.295 2.272zm151.453-.105a184.37 184.37 0 0 0-5.321-2.273l.2-.489c1.782.729 3.577 1.496 5.337 2.28l-.216.482zm-140.796-4.272-.185-.494a185.51 185.51 0 0 1 5.439-1.942l.17.5c-1.806.613-3.63 1.264-5.424 1.936zm130.084-.107a185.544 185.544 0 0 0-5.456-1.937l.169-.5c1.821.614 3.661 1.268 5.471 1.942l-.184.495zm-119.171-3.598-.154-.505c1.607-.49 3.244-.965 4.866-1.411l.701-.192.139.509-.699.191c-1.618.447-3.251.92-4.853 1.408zm108.2-.103a185.082 185.082 0 0 0-5.57-1.591l.137-.51c1.861.5 3.741 1.037 5.585 1.595l-.152.506zM209.97 87.88l-.122-.513c1.871-.445 3.774-.865 5.656-1.251l.106.517c-1.877.384-3.775.803-5.64 1.247zm85.877-.088a180.414 180.414 0 0 0-5.642-1.235l.105-.518c1.88.38 3.784.797 5.659 1.239l-.122.514zm-74.561-2.229-.09-.52c1.896-.327 3.821-.629 5.723-.896l.074.523c-1.896.266-3.816.566-5.707.893zm63.239-.068a9.202 9.202 0 0 0-.304-.048 41.86 41.86 0 0 0-.81-.137c-.132-.024-.26-.043-.386-.062a189.21 189.21 0 0 0-4.208-.635l.072-.523c1.39.193 2.793.405 4.172.629.173.025.308.045.439.07.259.041.526.087.792.134.115.017.219.034.323.052l-.09.52zm-51.8-1.542-.057-.525c1.91-.208 3.85-.39 5.767-.541l.041.526c-1.911.151-3.846.332-5.751.54zm40.359-.042a201.06 201.06 0 0 0-2.474-.246 93.54 93.54 0 0 0-1.166-.108l-.09-.008c-.217-.021-.437-.036-.653-.052-.467-.039-.919-.075-1.37-.109l.04-.526c.453.035.905.071 1.358.108.229.016.454.032.674.053l.088.008c.389.034.782.069 1.17.108.827.076 1.654.159 2.479.246l-.056.526zm-28.842-.855-.025-.527c1.9-.09 3.848-.152 5.79-.184l.009.528c-1.938.031-3.881.093-5.774.183zm17.317-.014c-.309-.02-.617-.031-.926-.041l-.055-.005c-.29-.012-.541-.021-.797-.026-.058-.004-.099-.007-.141-.007l-.07.002a167.48 167.48 0 0 0-3.779-.096l.008-.528c1.286.019 2.561.052 3.791.097-.003-.002.024-.002.05-.002.055 0 .111.004.167.008.248.004.505.015.763.03l.089-.003.018.005c.313.01.614.021.916.04l-.034.526z" style="fill:#e0e0e0"/><path d="M200.861 359.456c-1.335.268-1.385 3.185-.061 3.558l60.959 17.192h.002l51.09-14.409c-.412-1.051 2.969-7.679-.146-8.297l-26.399-5.62h-69.689l-15.756 7.576z" style="fill:#1e3e59"/><path d="m211.323 405.657-4.308 2.792s-6.398 6.083-9.104 9.896c-1.094 1.541-3.529.994-3.792-.877-.215-1.528.047-3.799 1.339-7.172 3.789-9.896 4.977-6.862 4.581-9.896-.396-3.035 4.33-7.619 7.975-4.799l3.309 10.056z" style="fill:#3b2a20"/><path d="m206.324 401.657-.677-1.658a3.938 3.938 0 0 1 1.974-5.054l93.23-43.729a3.944 3.944 0 0 1 2.898-.179l10.373 3.385a3.938 3.938 0 0 1 2.273 5.562l-5.037 9.673a3.94 3.94 0 0 1-2.195 1.899l-97.21 33.987a3.942 3.942 0 0 1-4.95-2.229l-.679-1.657z" style="fill:#37536d"/><path d="m299.24 407.412 4.308 2.792s6.398 6.083 9.104 9.896c1.094 1.541 3.529.994 3.792-.877.215-1.528-.047-3.799-1.339-7.172-3.789-9.896-4.977-6.862-4.581-9.896.396-3.035-4.33-7.619-7.975-4.799l-3.309 10.056z" style="fill:#3b2a20"/><path d="m302.354 403.198.96-2.349a3.152 3.152 0 0 0-1.581-4.046l-94.188-44.178a3.157 3.157 0 0 0-2.32-.143l-11.55 3.769a3.153 3.153 0 0 0-1.82 4.453l5.609 10.771a3.156 3.156 0 0 0 1.757 1.521l98.209 34.336a3.156 3.156 0 0 0 3.963-1.784l.961-2.35z" style="fill:#37536d"/><path d="M366.05 212.469c-7.37-1.964-11.048 2.743-11.048 2.743s-5.749.98-5.873 4.209c-.125 3.229 1.017 9.113 3.341 9.843 2.324.73.617 6.473-.818 7.73l10.134 2.133s2.895-7.924 4.768-8.92c1.874-.997 6.865-15.773-.504-17.738zm-9.053 12.629c-4.496-1.705-3.262-4.395-3.262-4.395s3.758-.799 4.037-2.117c.279-1.317 4.81-1.996 5.385.455.575 2.452-1.664 7.763-6.16 6.057z" style="fill:#fedba7"/><path d="m288.899 291.315 47.291-.061 28.599-54.125-14.584-1.803-21.517 34.208-23.283-9.555-4.496-1.281z" style="fill:#37536d"/><path d="M136.672 230.068c1.874.995 4.768 8.92 4.768 8.92l10.134-2.133c-1.434-1.256-3.141-6.999-.818-7.729 2.324-.73 3.465-6.614 3.341-9.843-.124-3.229-5.873-4.209-5.873-4.209s-3.679-4.707-11.048-2.743c-7.369 1.965-2.377 16.742-.504 17.737zm3.397-11.164c.575-2.451 5.106-1.773 5.385-.456.279 1.318 4.037 2.117 4.037 2.117s1.234 2.69-3.262 4.395c-4.496 1.706-6.735-3.604-6.16-6.056z" style="fill:#fedba7"/><path d="m214.328 291.177-47.292-.061-28.599-54.124 14.585-1.804 21.517 34.209 23.282-9.556 4.497-1.281z" style="fill:#37536d"/><path d="m302.675 259.122-9.529 22.294-4.228 9.861-.019.038-1.109 8.94-.451 3.588-1.034 48.038-33.067 10.688-36.621-10.688-1.166-48.038-.469-3.701-1.184-9.522-3.985-9.26-9.566-22.238 25.955-7.42.601-.169 9.04-2.592h31.104l9.059 2.574v.018l.62.169z" style="fill:#37536d"/><path d="M235.851 248.942s15.511 50.444 16.066 52.146c0 0 13.622-46.867 15.037-52.165.001 0-25.093-1.082-31.103.019z" style="fill:#dbdbdb"/><path d="m266.083 246.387-4.792 2.329-.282.15-.113.056-.037.019-6.634 3.23-.958.47c-.207.094-.413.169-.62.263h-.019a.746.746 0 0 1-.282.056c-.601.15-1.24.169-1.842.019-.113-.019-.226-.038-.338-.075a3.186 3.186 0 0 1-.639-.244c-.019 0-.019-.019-.038-.019l-6.352-3.08-1.165-.582-.094-.037-.038-.019-.019-.019-.771-.376h-.019l-4.379-2.141.977-4.959.019-.113 1.597-8.152v-.019l.169-.92h23.925l.169.883v.019l1.616 8.208.959 5.053z" style="fill:#f0bd6c"/><path d="M249.73 254.951s1.368.548 3.334 0l-1.647-7.915-1.687 7.915z" style="fill:#b2b2b2"/><path d="m251.367 247.026-.113.488-.188.958-.094.413v.056l-.808 3.963-.432 2.048-.865-.376-5.525-2.404-1.353-.582-6.146-2.649v-.018h-.019l1.804-7.495.019-.112 4.304 1.803.846.357zM265.15 241.332l-13.734 5.704 1.648 7.915 13.891-6.028z" style="fill:#c6c6c6"/><path d="m251.416 247.036 1.648 7.915-.38.127zM250.186 255.078l1.23-8.042-1.686 7.915z" style="fill:#7f7f7f"/><path d="m251.416 247.036-3.035 8.975 4.17 2.758 2.937-4.167-3.927-7.566z" style="fill:#4dbacc"/><path d="m250.573 257.461-2.414 31.474 3.758 12.154 5.771-19.89-3.845-24.953z" style="fill:#4dbacc"/><path d="M276.626 251.684v.018l-8.645 27.761-7.292-2.648 5.056 5.935-13.608 18.951.786 50.18-1.218-50.18-7.461-10.386-6.146-8.565 4.812-5.654.244-.281-.263.093-7.048 2.555-9.641-27.761v-.018l.601-.169v.018l9.829 26.841 6.221-1.991 1.184-.376-1.109 1.409-3.965 5.015 5.112 7.344 7.837 11.307.019-.038 12.949-18.613-5.074-6.424 7.386 2.367 8.814-26.841v-.018z" style="fill:#1c4860"/><path d="M276.857 202.481s7.014-8.07 1.1-7.81c-5.914.26-1.813 4.826-1.813 4.826l.713 2.984z" style="fill:#d3a97f"/><path d="M277.705 196.479s1.406-1.091 1.68-.421c.274.67-.37 2.352-.596 2.516 0 0 .784-2.15.279-2.029-.505.122-.489 1.126-.489 1.126s-.35-1.035 0-1.339c0 0-.836.529-.99.98l-.641.199.757-1.032z" style="fill:#b5855b"/><path d="m226.446 199.487-.564 2.385-.113.488-.019.113s-7.029-8.058-1.109-7.795h.056c.507.019.94.075 1.278.169 3.891.865.471 4.64.471 4.64z" style="fill:#d3a97f"/><path d="M224.89 196.479s-1.406-1.091-1.68-.421c-.274.67.369 2.352.596 2.516 0 0-.784-2.15-.279-2.029.505.122.489 1.126.489 1.126s.35-1.035 0-1.339c0 0 .836.529.99.98l.641.199-.757-1.032z" style="fill:#b5855b"/><path d="m279.577 183.052-.508 3.644-.075.582-.019.038-.056.451-.094.62-.038.3v.019h-.019l-.056.488-.752 5.485-.263 1.784v.019l-.113.826-.489 3.456v.019l-.019.019-.226 1.615v.056l-2.086 14.97-1.541 10.95c0 .094-.037.188-.056.263a1.455 1.455 0 0 1-.301.451c-.075.056-.131.113-.207.15-.075.056-.15.113-.207.131l-8.946 3.719-.038.019-11.239 4.677-.132.057a2.271 2.271 0 0 1-.376.094c-.113.038-.245.038-.376.038-.282 0-.564-.038-.827-.15h-.019c-.019 0-.038-.019-.056-.019l-7.988-3.343-.451-.188-2.763-1.127-.056-.019-8.927-3.719c-.094-.038-.188-.113-.263-.169a1.188 1.188 0 0 1-.507-.657c-.038-.094-.056-.207-.075-.319l-3.646-25.92-.225-1.578v-.019l-.489-3.437-.094-.733v-.019l-.263-1.897-.733-5.259-.094-.62-.113-.883-.056-.432-.019-.169-.113-.845-.094-.47-.395-2.949 9.623-18.332.451-.864 2.8-5.334h30.71l12.914 24.53z" style="fill:#fedba7"/><path d="m277.096 200.783-.225 1.672v.019l-2.105 14.97-1.541 10.95c0 .094-.037.188-.056.263a1.455 1.455 0 0 1-.301.451c-.075.056-.131.113-.207.15-.075.056-.15.113-.207.131l-8.946 3.719-.038.019-11.239 4.677-.132.057a2.271 2.271 0 0 1-.376.094c-.113.038-.245.038-.376.038-.282 0-.564-.038-.827-.15h-.019c-.019 0-.038-.019-.056-.019l-7.988-3.343-.451-.188-2.763-1.127-.056-.019-8.927-3.719c-.094-.038-.188-.113-.263-.169a1.188 1.188 0 0 1-.507-.657c-.038-.094-.056-.207-.075-.319l-3.646-25.92-.225-1.578.338 1.089 6.728 22.295c.132.413.47.77.902.902l8.608 2.911.32.113 8.307 2.836c.357.132.771.132 1.165 0l17.253-5.879c.413-.132.714-.451.864-.864l6.691-22.238.357-1.146.019-.021zM280.46 182.433c-.602.451-.94 1.108-1.034 1.822l-.357 2.442-.075.582v.038l-.075.451-.094.62-.038.3v.019l-.075.488-.752 5.485-.263 1.784v.019l-.113.826-.489 3.456-.47-5.935-.056-.77-.376-4.715-.056-.657-.056-.714-.019-.263v-.132l-.056-.732-.038-.488-.432-5.316s-4.868-5.39-3.702-8.903c.827-2.442-13.626 2.047-24.188 3.155-1.184.132-2.293.225-3.345.244-3.307.094-5.882-.357-6.935-1.803a7.048 7.048 0 0 0-.827-.92c-.282-.244-.526-.376-.771-.413-.376-.094-.714.057-1.034.376v.038c-1.917 1.991-2.819 10.161-7.8 8.978l-.319 4.207-.038.695-.056.62-.038.507v.094l-.075 1.09-.019.206-.357 4.846-.057.77v.019l-.432 5.917-.489-3.437-.094-.733v-.019h-.019v-.019l-.244-1.878-.752-5.259-.094-.62-.113-.883-.226-1.446-.056-.47-2.894-20.492a4.119 4.119 0 0 1 1.842-4.02c2.067-1.296 5.375-2.967 8.739-2.967 0 0-3.702-13.617 7.386-11.589 2.819.507 5.958.695 9.284.939 2.161.169 4.398.338 6.691.639 8.119.977 16.933 3.456 25.071 11.701 11.767 11.908 3.686 19.966.885 22.22z" style="fill:#654321"/><path d="m252.228 237.8-.136.058a2.106 2.106 0 0 1-1.579-.02l.819-6.722.896 6.684zM273.225 228.39c-.039.37-.253.701-.565.877l-2.827-4.423 3.392 3.546zM232.817 224.844l-2.819 4.414a1.188 1.188 0 0 1-.507-.657l3.326-3.757zM226.408 188.8v.413h-.018l-2.425.207h-.019l-.094-.62zM223.736 187.92h2.759l.044-.603h-2.867zM226.634 186.001l-.057.695-3.006-.225h-.057l-.056-.47zM275.961 186.358l3.106.341-.086.618-2.982-.48zM276.057 187.572l2.862.186-.087.622-2.775-.404zM278.789 188.689h-2.644l.051.65 2.522-.146zM236.531 172.809c-.716-.616-1.273-.537-1.79-.02l-3.6-14.272 5.39 14.292z" style="fill:#56371b"/><path d="M239.415 197.51c-2.807 0-5.092-1.962-5.092-4.373 0-1.019.422-2.014 1.19-2.802.978-.999 2.4-1.571 3.902-1.571 1.596 0 3.064.626 4.028 1.717.702.772 1.063 1.69 1.063 2.656 0 1.04-.43 2.043-1.212 2.824-.963.985-2.378 1.549-3.879 1.549z" style="fill:#cca176"/><path d="M244.308 193.137c0 1.034-.438 1.968-1.154 2.683-.895.914-2.247 1.491-3.739 1.491-2.685 0-4.893-1.868-4.893-4.174 0-1.014.438-1.948 1.134-2.663.915-.934 2.267-1.511 3.759-1.511 1.591 0 2.984.636 3.878 1.65h.02c.617.696.995 1.57.995 2.524z" style="fill:#e5e5e5"/><path d="M243.154 195.821c-.895.914-2.247 1.491-3.739 1.491-2.685 0-4.893-1.868-4.893-4.174 0-1.014.438-1.948 1.134-2.663 0-.001.676 6.399 7.498 5.346z" style="fill:#cecece"/><path d="M242.193 193.133a2.77 2.77 0 0 1-2.772 2.77 2.77 2.77 0 1 1 2.772-2.77z" style="fill:#3bb3bc"/><path d="M243.293 190.613c-4.057-1.769-7.637-.139-7.637-.139.915-.934 2.267-1.511 3.759-1.511 1.591 0 2.983.636 3.878 1.65z" style="fill:#3b2a20"/><path d="M263.251 197.51c-2.808 0-5.092-1.962-5.092-4.373 0-1.019.423-2.014 1.19-2.802.978-.999 2.4-1.571 3.902-1.571 1.595 0 3.064.626 4.028 1.717.702.772 1.064 1.69 1.064 2.656 0 1.04-.43 2.043-1.212 2.824-.963.985-2.378 1.549-3.88 1.549z" style="fill:#cca176"/><path d="M268.144 193.137c0 1.034-.438 1.968-1.154 2.683-.895.914-2.247 1.491-3.739 1.491-2.685 0-4.893-1.868-4.893-4.174 0-1.014.438-1.948 1.134-2.663.915-.934 2.267-1.511 3.759-1.511 1.591 0 2.983.636 3.878 1.65h.02c.617.696.995 1.57.995 2.524z" style="fill:#e5e5e5"/><path d="M266.99 195.821c-.895.914-2.247 1.491-3.739 1.491-2.685 0-4.893-1.868-4.893-4.174 0-1.014.438-1.948 1.134-2.663 0-.001.676 6.399 7.498 5.346z" style="fill:#cecece"/><circle cx="263.258" cy="193.133" r="2.771" style="fill:#3bb3bc"/><path d="M267.129 190.613c-4.057-1.769-7.637-.139-7.637-.139.915-.934 2.267-1.511 3.759-1.511 1.591 0 2.983.636 3.878 1.65z" style="fill:#3b2a20"/><path d="m256.565 180.513 1.09 3.657a.75.75 0 0 0 .815.539c2.37-.301 10.678-1.041 11.489 3.268 0 0 2.492-7.398-12.855-8.134-.356-.018-.641.328-.539.67zM246.84 181.665l-1.122 3.648a.75.75 0 0 1-.82.532c-2.367-.322-10.669-1.132-11.516 3.169 0 0-2.429-7.418 12.924-8.025.358-.014.639.335.534.676z" style="fill:#654321"/><g style="opacity:.28"><path d="m251.336 197.51 3.081 5.704a.64.64 0 0 1-.178.815l-2.278 1.715a1.04 1.04 0 0 1-1.249 0l-2.3-1.732a.607.607 0 0 1-.169-.774l3.093-5.728z" style="fill:#e5384b"/></g><g style="opacity:.4"><path d="m236.471 188.553-4.508 9.71 3.292.176 4.094-10.059z" style="fill:#fff"/></g><g style="opacity:.4"><path d="m241.898 188.553-4.509 9.71 3.293.176 4.093-10.059z" style="fill:#fff"/></g><path d="m227.651 188.689.379 9.884 20.065 1.03 1.391-12.286-21.835 1.372zm19.383 10.061-18.101-.887-.342-8.512 19.699-1.182-1.256 10.581z" style="fill:#423d3a"/><path d="m227.841 193.636-1.796.42-.057.782 1.879-.533z" style="fill:#423d3a"/><g style="opacity:.4"><path d="m266.163 188.553 4.508 9.71-3.292.176-4.094-10.059z" style="fill:#fff"/></g><g style="opacity:.4"><path d="m260.736 188.553 4.509 9.71-3.293.176-4.094-10.059z" style="fill:#fff"/></g><path d="m253.147 187.317 1.391 12.286 20.064-1.03.38-9.884-21.835-1.372zm1.198.852 19.699 1.182-.342 8.512-18.102.887-1.255-10.581zM274.793 193.636l1.796.42.057.782-1.879-.533z" style="fill:#423d3a"/><path d="M253.744 192.584h-4.854l-.148 1.309h5.15z" style="fill:#423d3a"/><path d="M243.596 212.441s12.776 1.081 20.469-4.4c0 0-2.193 1.948-4.123 4.486-1.931 2.538-7.978 11.183-16.346-.086z" style="fill:#3b2a20"/><path d="M255.275 313.878c0 1.822-1.478 3.3-3.302 3.3a3.3 3.3 0 1 1 0-6.6 3.3 3.3 0 0 1 3.302 3.3zM255.542 331.823c0 1.822-1.478 3.3-3.302 3.3a3.3 3.3 0 1 1 0-6.6 3.302 3.302 0 0 1 3.302 3.3z" style="fill:#1c4860"/><path d="M381.035 190.225h-.008l-.622-.003.007-.739.615.003h.008c2.486 0 4.987-.164 7.435-.488l.097.732c-2.48.329-5.014.495-7.532.495zm-8.778-.671a56.846 56.846 0 0 1-7.97-1.829l.217-.706a56.01 56.01 0 0 0 7.865 1.805l-.112.73zm24.318-1.477-.202-.711a55.927 55.927 0 0 0 7.586-2.755l.302.675a56.724 56.724 0 0 1-7.686 2.791zm-39.916-3.314a57.232 57.232 0 0 1-7.119-4.027l.41-.616a56.27 56.27 0 0 0 7.026 3.975l-.317.668zm54.8-3.343-.396-.624a56.538 56.538 0 0 0 6.488-4.795l.481.561a57.403 57.403 0 0 1-6.573 4.858zm-68.385-5.688a57.65 57.65 0 0 1-5.686-5.872l.566-.475a56.909 56.909 0 0 0 5.613 5.797l-.493.55zm80.772-4.917-.556-.487a56.162 56.162 0 0 0 4.872-6.433l.62.403a56.906 56.906 0 0 1-4.936 6.517zm-91.247-7.577a56.915 56.915 0 0 1-3.79-7.236l.679-.294a56.21 56.21 0 0 0 3.74 7.142l-.629.388zm100.136-6.098-.672-.309a55.987 55.987 0 0 0 2.842-7.554l.709.209a56.556 56.556 0 0 1-2.879 7.654zm-106.634-8.85a56.97 56.97 0 0 1-1.567-8.02l.734-.089a56.121 56.121 0 0 0 1.547 7.916l-.714.193zm111.257-6.789-.732-.105c.38-2.645.573-5.352.573-8.045h.739c0 2.728-.196 5.47-.58 8.15zm-112.489-9.376-.739-.016c.059-2.727.314-5.464.757-8.136l.729.121a56.622 56.622 0 0 0-.747 8.031zm112.052-4.391a56.303 56.303 0 0 0-1.373-7.947l.718-.178a56.928 56.928 0 0 1 1.391 8.052l-.736.073zm-109.412-11.48-.705-.225a56.707 56.707 0 0 1 3.048-7.589l.664.324a55.996 55.996 0 0 0-3.007 7.49zm105.533-4.134a56.14 56.14 0 0 0-3.583-7.222l.637-.375a56.902 56.902 0 0 1 3.63 7.317l-.684.28zm-98.471-10.334-.611-.416a57.307 57.307 0 0 1 5.076-6.408l.546.499a56.36 56.36 0 0 0-5.011 6.325zm90.305-3.524a56.774 56.774 0 0 0-5.486-5.916l.505-.54a57.412 57.412 0 0 1 5.557 5.994l-.576.462zm-79.433-8.348-.469-.572a57.278 57.278 0 0 1 6.677-4.713l.383.633a56.332 56.332 0 0 0-6.591 4.652zm67.672-2.644a56.396 56.396 0 0 0-6.938-4.128l.332-.66a57.172 57.172 0 0 1 7.029 4.182l-.423.606zm-53.896-5.667-.287-.681a56.725 56.725 0 0 1 7.745-2.622l.186.715a55.886 55.886 0 0 0-7.644 2.588zm39.497-1.548a55.942 55.942 0 0 0-7.824-1.977l.128-.727a56.695 56.695 0 0 1 7.928 2.003l-.232.701zM374.8 77.556l-.081-.735a57.727 57.727 0 0 1 6.299-.345h.009c.622 0 1.243.01 1.861.03l-.023.739c-.614-.019-1.196-.018-1.848-.029a56.74 56.74 0 0 0-6.217.34zM429.464 133.351c0 .288 0 .576-.015.865v.007a47.845 47.845 0 0 1-.702 7.463 45.56 45.56 0 0 1-.784 3.643c-3.808 14.978-14.618 27.171-28.74 32.89a48.126 48.126 0 0 1-16.548 3.503c-.54.022-1.094.03-1.641.03-17.243 0-32.386-9.008-40.963-22.575a47.91 47.91 0 0 1-7.032-19.331 48.297 48.297 0 0 1-.436-6.495c0-13.641 5.656-25.966 14.744-34.767.133-.133.274-.266.414-.399a48.33 48.33 0 0 1 13.841-9.171 47.616 47.616 0 0 1 12.06-3.502 48.548 48.548 0 0 1 7.372-.562c20.629 0 38.249 12.895 45.221 31.058a47.653 47.653 0 0 1 2.758 10.729c.296 2.158.451 4.367.451 6.614zM421.413 408.62l-.622-.004.007-.739.615.004a56.97 56.97 0 0 0 7.442-.488l.097.733a57.932 57.932 0 0 1-7.539.494zm-8.771-.672a56.66 56.66 0 0 1-7.969-1.829l.216-.706a56.133 56.133 0 0 0 7.866 1.805l-.113.73zm24.318-1.477-.202-.711a55.923 55.923 0 0 0 7.586-2.754l.302.674a56.81 56.81 0 0 1-7.686 2.791zm-39.915-3.314a57.188 57.188 0 0 1-7.118-4.028l.409-.615a56.37 56.37 0 0 0 7.027 3.975l-.318.668zm54.8-3.344-.396-.623a56.651 56.651 0 0 0 6.488-4.795l.481.561a57.271 57.271 0 0 1-6.573 4.857zm-68.386-5.688a57.239 57.239 0 0 1-5.685-5.873l.566-.475a56.716 56.716 0 0 0 5.613 5.798l-.494.55zm80.773-4.916-.556-.486a56.691 56.691 0 0 0 4.872-6.433l.62.403a57.336 57.336 0 0 1-4.936 6.516zm-91.248-7.578a56.78 56.78 0 0 1-3.79-7.236l.679-.294a56.21 56.21 0 0 0 3.74 7.142l-.629.388zm100.137-6.097-.672-.309a55.848 55.848 0 0 0 2.842-7.555l.709.21a56.723 56.723 0 0 1-2.879 7.654zm-106.635-8.851a56.998 56.998 0 0 1-1.567-8.02l.734-.09a56.121 56.121 0 0 0 1.547 7.916l-.714.194zm111.257-6.787-.732-.105c.38-2.645.572-5.352.572-8.045h.739a57.361 57.361 0 0 1-.579 8.15zm-112.488-9.379-.739-.016c.059-2.727.313-5.464.757-8.136l.729.121a56.636 56.636 0 0 0-.747 8.031zm112.051-4.387a56.212 56.212 0 0 0-1.373-7.948l.718-.178a56.8 56.8 0 0 1 1.391 8.052l-.736.074zm-109.411-11.483-.705-.225a56.6 56.6 0 0 1 3.048-7.589l.664.325a55.956 55.956 0 0 0-3.007 7.489zm105.532-4.131a56.12 56.12 0 0 0-3.582-7.221l.637-.375a57.083 57.083 0 0 1 3.63 7.316l-.685.28zm-98.47-10.337-.611-.416a57.452 57.452 0 0 1 5.076-6.409l.546.5a56.724 56.724 0 0 0-5.011 6.325zm90.305-3.521a56.76 56.76 0 0 0-5.486-5.917l.505-.54a57.299 57.299 0 0 1 5.557 5.995l-.576.462zm-79.432-8.35-.469-.572a57.307 57.307 0 0 1 6.677-4.714l.383.632a56.523 56.523 0 0 0-6.591 4.654zm67.672-2.643a56.15 56.15 0 0 0-6.938-4.128l.332-.661a56.983 56.983 0 0 1 7.029 4.183l-.423.606zm-53.896-5.669-.287-.681a56.771 56.771 0 0 1 7.745-2.622l.186.716a55.881 55.881 0 0 0-7.644 2.587zm39.497-1.546a55.943 55.943 0 0 0-7.824-1.978l.129-.727a56.787 56.787 0 0 1 7.927 2.004l-.232.701zm-23.916-2.5-.081-.735a58.181 58.181 0 0 1 8.169-.316l-.023.739a57.78 57.78 0 0 0-8.065.312zM469.827 351.741c0 2.143-.141 4.256-.414 6.325-.081.65-.177 1.293-.288 1.936-.03.155-.059.318-.081.473-.074.399-.155.798-.237 1.197-4.584 21.954-24.06 38.454-47.388 38.454-23.469 0-43.04-16.693-47.477-38.846a42.038 42.038 0 0 1-.17-.916l-.022-.111a48.923 48.923 0 0 1-.747-8.512 48.111 48.111 0 0 1 6.477-24.178c.118-.214.244-.428.377-.635.251-.429.51-.857.784-1.278 8.607-13.404 23.653-22.286 40.778-22.286 23.158 0 42.515 16.249 47.277 37.959.141.599.259 1.197.37 1.803.148.842.281 1.692.377 2.549a47.1 47.1 0 0 1 .384 6.066zM130.772 351.746a48.37 48.37 0 0 1-1.76 12.961 46.248 46.248 0 0 1-.762 2.498 48.225 48.225 0 0 1-3.231 7.434 43.084 43.084 0 0 1-1.516 2.609 48.066 48.066 0 0 1-6.115 7.899 48.985 48.985 0 0 1-2.965 2.852 48.291 48.291 0 0 1-32.083 12.148c-.222 0-.436 0-.658-.007a47.991 47.991 0 0 1-18.566-3.961 44.638 44.638 0 0 1-3.69-1.788 47.87 47.87 0 0 1-8.244-5.601 44.681 44.681 0 0 1-2.255-2.01 49.431 49.431 0 0 1-5.39-6.059 52.905 52.905 0 0 1-1.501-2.135 47.327 47.327 0 0 1-3.579-6.355 37.366 37.366 0 0 1-.976-2.217 47.872 47.872 0 0 1-3.527-16.375 39.566 39.566 0 0 1-.044-1.892c0-1.744.089-3.466.274-5.165.266-2.49.717-4.921 1.346-7.286.044-.177.096-.355.14-.525a48.073 48.073 0 0 1 6.921-14.675c.362-.525.732-1.035 1.117-1.537a48.61 48.61 0 0 1 11.838-11.136c7.675-5.106 16.888-8.077 26.796-8.077 2.085 0 4.148.133 6.167.392a48.117 48.117 0 0 1 21.457 8.254 48.294 48.294 0 0 1 8.821 7.885 47.305 47.305 0 0 1 5.886 8.35c.17.288.325.576.473.872 3.593 6.753 5.626 14.46 5.626 22.647zM82.34 408.62l-.622-.004.008-.739.614.004a56.97 56.97 0 0 0 7.442-.489l.097.733a57.769 57.769 0 0 1-7.539.495zm-8.771-.672a56.789 56.789 0 0 1-7.969-1.829l.217-.706a56.165 56.165 0 0 0 7.866 1.805l-.114.73zm24.318-1.477-.201-.711a56.045 56.045 0 0 0 7.585-2.754l.303.674a56.873 56.873 0 0 1-7.687 2.791zm-39.915-3.313a57.128 57.128 0 0 1-7.119-4.028l.409-.615a56.303 56.303 0 0 0 7.026 3.975l-.316.668zm54.8-3.345-.396-.623a56.739 56.739 0 0 0 6.488-4.795l.481.561a57.359 57.359 0 0 1-6.573 4.857zm-68.386-5.688a57.34 57.34 0 0 1-5.686-5.873l.567-.475a56.6 56.6 0 0 0 5.613 5.798l-.494.55zm80.773-4.916-.556-.486a56.634 56.634 0 0 0 4.872-6.433l.62.403a57.25 57.25 0 0 1-4.936 6.516zm-91.248-7.578a56.78 56.78 0 0 1-3.789-7.236l.678-.294a56.217 56.217 0 0 0 3.74 7.142l-.629.388zm100.137-6.097-.672-.309a55.914 55.914 0 0 0 2.842-7.555l.709.209a56.618 56.618 0 0 1-2.879 7.655zm-106.635-8.85a56.742 56.742 0 0 1-1.567-8.02l.734-.09a56.119 56.119 0 0 0 1.546 7.916l-.713.194zm111.257-6.788-.732-.105c.38-2.645.573-5.352.573-8.045h.739c0 2.728-.195 5.47-.58 8.15zm-112.487-9.378-.739-.016c.059-2.726.313-5.463.757-8.136l.729.121a56.53 56.53 0 0 0-.747 8.031zm112.05-4.388a56.193 56.193 0 0 0-1.373-7.948l.718-.178a56.78 56.78 0 0 1 1.391 8.052l-.736.074zM28.822 334.647l-.704-.225a56.599 56.599 0 0 1 3.048-7.589l.664.325a55.748 55.748 0 0 0-3.008 7.489zm105.533-4.132a56.186 56.186 0 0 0-3.582-7.221l.637-.375a56.953 56.953 0 0 1 3.63 7.316l-.685.28zm-98.471-10.336-.611-.416a57.318 57.318 0 0 1 5.076-6.409l.545.499a56.658 56.658 0 0 0-5.01 6.326zm90.304-3.522a56.721 56.721 0 0 0-5.486-5.917l.506-.54a57.465 57.465 0 0 1 5.557 5.994l-.577.463zm-79.432-8.349-.469-.572a57.35 57.35 0 0 1 6.677-4.714l.382.632a56.724 56.724 0 0 0-6.59 4.654zm67.672-2.643a56.212 56.212 0 0 0-6.937-4.128l.331-.661a56.983 56.983 0 0 1 7.029 4.183l-.423.606zm-53.895-5.669-.288-.681a56.771 56.771 0 0 1 7.745-2.622l.186.716a55.824 55.824 0 0 0-7.643 2.587zm39.497-1.547a56.046 56.046 0 0 0-7.824-1.977l.129-.727a56.89 56.89 0 0 1 7.927 2.003l-.232.701zm-23.916-2.5-.081-.735a58.192 58.192 0 0 1 8.169-.315l-.023.739a57.762 57.762 0 0 0-8.065.311zM127.663 190.225h-.008l-.622-.003.008-.739.614.003h.008c2.485 0 4.987-.164 7.435-.488l.097.732c-2.48.329-5.014.495-7.532.495zm-8.779-.671a56.724 56.724 0 0 1-7.969-1.829l.217-.706a55.82 55.82 0 0 0 7.866 1.805l-.114.73zm24.318-1.477-.201-.711a55.914 55.914 0 0 0 7.585-2.755l.302.675a56.761 56.761 0 0 1-7.686 2.791zm-39.914-3.314a57.095 57.095 0 0 1-7.119-4.028l.409-.615a56.387 56.387 0 0 0 7.026 3.976l-.316.667zm54.8-3.344-.396-.624A56.651 56.651 0 0 0 164.18 176l.481.561a57.28 57.28 0 0 1-6.573 4.858zm-68.386-5.688a57.426 57.426 0 0 1-5.686-5.872l.567-.475a56.69 56.69 0 0 0 5.613 5.797l-.494.55zm80.773-4.916-.556-.487a56.514 56.514 0 0 0 4.872-6.433l.62.403a57.258 57.258 0 0 1-4.936 6.517zm-91.248-7.577a56.908 56.908 0 0 1-3.789-7.236l.678-.294a56.21 56.21 0 0 0 3.74 7.142l-.629.388zm100.136-6.098-.671-.31a55.868 55.868 0 0 0 2.842-7.554l.709.209a56.59 56.59 0 0 1-2.88 7.655zm-106.634-8.85a56.742 56.742 0 0 1-1.567-8.02l.734-.089a56.147 56.147 0 0 0 1.546 7.916l-.713.193zm111.256-6.789-.732-.105c.38-2.645.573-5.352.573-8.045h.739c0 2.728-.195 5.47-.58 8.15zm-112.487-9.377-.739-.016c.058-2.725.313-5.463.757-8.136l.729.121a56.53 56.53 0 0 0-.747 8.031zm112.051-4.389a56.242 56.242 0 0 0-1.373-7.948l.718-.178a56.818 56.818 0 0 1 1.391 8.053l-.736.073zM74.137 116.253l-.704-.225a56.626 56.626 0 0 1 3.048-7.589l.664.324a55.92 55.92 0 0 0-3.008 7.49zm105.533-4.132a56.056 56.056 0 0 0-3.582-7.221l.637-.375a56.772 56.772 0 0 1 3.63 7.317l-.685.279zm-98.471-10.336-.611-.416a57.173 57.173 0 0 1 5.076-6.408l.545.499a56.743 56.743 0 0 0-5.01 6.325zm90.305-3.522a56.652 56.652 0 0 0-5.486-5.917l.505-.54a57.497 57.497 0 0 1 5.557 5.994l-.576.463zm-79.433-8.349-.469-.572a57.3 57.3 0 0 1 6.677-4.714l.382.633a56.631 56.631 0 0 0-6.59 4.653zm67.672-2.644a56.385 56.385 0 0 0-6.937-4.128l.332-.66a57.097 57.097 0 0 1 7.029 4.182l-.424.606zm-53.895-5.668-.287-.681a56.83 56.83 0 0 1 7.746-2.622l.186.715a56.081 56.081 0 0 0-7.645 2.588zm39.498-1.547a56.014 56.014 0 0 0-7.824-1.978l.129-.727a56.628 56.628 0 0 1 7.928 2.004l-.233.701zm-23.917-2.499-.081-.735a58.248 58.248 0 0 1 8.17-.315l-.023.738a57.654 57.654 0 0 0-8.066.312zM176.086 133.351c0 .532-.007 1.057-.03 1.581a47.974 47.974 0 0 1-7.911 24.969 47.42 47.42 0 0 1-4.252 5.549 48.498 48.498 0 0 1-12.422 10.05 45.043 45.043 0 0 1-3.86 1.958c-1.042.48-2.107.916-3.187 1.308a43.153 43.153 0 0 1-3.091 1.02 48 48 0 0 1-13.679 1.965c-.348 0-.695 0-1.043-.022a48.034 48.034 0 0 1-22.773-6.229 48.498 48.498 0 0 1-12.422-10.05 47.58 47.58 0 0 1-4.251-5.549 47.361 47.361 0 0 1-3.527-6.348 47.379 47.379 0 0 1-2.566-6.902 48.455 48.455 0 0 1-1.848-13.301c0-26.735 21.686-48.4 48.43-48.4 10.684 0 20.57 3.458 28.578 9.318.54.399 1.072.806 1.597 1.227a48.663 48.663 0 0 1 6.196 5.897 48.928 48.928 0 0 1 4.85 6.539 46.627 46.627 0 0 1 1.649 2.889 47.86 47.86 0 0 1 5.146 16.205c.275 2.07.416 4.183.416 6.326zM113.39 235.462c0 .968-.03 1.936-.089 2.889a47.933 47.933 0 0 1-4.88 18.473c-5.856 11.882-16.452 21.023-29.324 24.947h-.007a48.444 48.444 0 0 1-14.13 2.091 48.202 48.202 0 0 1-31.195-11.387 48.461 48.461 0 0 1-10.396-12.207 48.06 48.06 0 0 1-6.78-22.434 48.278 48.278 0 0 1-.059-2.32v-.052c0-3.141.303-6.214.872-9.192.192-.983.407-1.958.658-2.919a47.976 47.976 0 0 1 5.715-13.367 48.39 48.39 0 0 1 4.769-6.429 48.397 48.397 0 0 1 6.669-6.281 46.02 46.02 0 0 1 4.082-2.86 47.164 47.164 0 0 1 7.083-3.658 47.971 47.971 0 0 1 14.093-3.488 44.865 44.865 0 0 1 3.002-.185 49.09 49.09 0 0 1 9.287.606c.769.118 1.531.266 2.285.428a47.1 47.1 0 0 1 7.401 2.195h.007c.636.244 1.257.503 1.871.776a46.359 46.359 0 0 1 6.174 3.251c.451.273.887.562 1.331.842 0 .007.007.007.007.007 12.636 8.446 21.073 22.663 21.531 38.883.016.46.023.925.023 1.391zM64.958 292.337l-.622-.004.008-.739.614.004c2.488 0 4.993-.165 7.443-.489l.097.733c-2.483.328-5.02.495-7.54.495zm-8.771-.671a56.789 56.789 0 0 1-7.969-1.829l.217-.706a56.184 56.184 0 0 0 7.865 1.805l-.113.73zm24.318-1.477-.201-.711a56.045 56.045 0 0 0 7.585-2.754l.303.674a56.774 56.774 0 0 1-7.687 2.791zm-39.914-3.314a57.2 57.2 0 0 1-7.119-4.028l.409-.615a56.43 56.43 0 0 0 7.026 3.975l-.316.668zm54.799-3.345-.396-.624a56.739 56.739 0 0 0 6.488-4.795l.481.561a57.045 57.045 0 0 1-6.573 4.858zm-68.385-5.687a57.34 57.34 0 0 1-5.686-5.873l.567-.475a56.6 56.6 0 0 0 5.613 5.798l-.494.55zm80.772-4.917-.556-.486a56.514 56.514 0 0 0 4.872-6.433l.62.403a57.102 57.102 0 0 1-4.936 6.516zm-91.247-7.577a56.908 56.908 0 0 1-3.789-7.236l.678-.294a56.21 56.21 0 0 0 3.74 7.142l-.629.388zm100.136-6.098-.672-.31a55.868 55.868 0 0 0 2.842-7.554l.709.209a56.585 56.585 0 0 1-2.879 7.655zm-106.634-8.849a56.686 56.686 0 0 1-1.567-8.02l.734-.089a56.119 56.119 0 0 0 1.546 7.916l-.713.193zm111.256-6.79-.732-.105c.38-2.645.573-5.352.573-8.045h.739c0 2.728-.195 5.47-.58 8.15zM8.801 234.236l-.739-.016a57.29 57.29 0 0 1 .757-8.136l.729.12a56.412 56.412 0 0 0-.747 8.032zm112.05-4.39a56.204 56.204 0 0 0-1.373-7.947l.718-.178a56.818 56.818 0 0 1 1.391 8.053l-.736.072zM11.44 218.365l-.704-.225a56.862 56.862 0 0 1 3.047-7.589l.664.324a55.97 55.97 0 0 0-3.007 7.49zm105.533-4.133a55.933 55.933 0 0 0-3.583-7.221l.637-.375a56.772 56.772 0 0 1 3.63 7.317l-.684.279zm-98.471-10.335-.611-.416a57.173 57.173 0 0 1 5.076-6.408l.545.499a56.422 56.422 0 0 0-5.01 6.325zm90.305-3.523a56.652 56.652 0 0 0-5.486-5.917l.506-.54a57.497 57.497 0 0 1 5.557 5.994l-.577.463zm-79.434-8.349-.469-.571a57.216 57.216 0 0 1 6.677-4.714l.382.633a56.623 56.623 0 0 0-6.59 4.652zm67.673-2.644a56.385 56.385 0 0 0-6.937-4.128l.331-.66a57.023 57.023 0 0 1 7.029 4.182l-.423.606zm-53.896-5.668-.287-.681a56.771 56.771 0 0 1 7.745-2.622l.186.715a56.114 56.114 0 0 0-7.644 2.588zm39.498-1.547a56.014 56.014 0 0 0-7.824-1.978l.129-.727a56.767 56.767 0 0 1 7.928 2.004l-.233.701zm-23.917-2.499-.081-.735a57.722 57.722 0 0 1 6.298-.345c.603-.016 1.251.01 1.871.03l-.023.739a59.161 59.161 0 0 0-1.839-.029h-.01a56.749 56.749 0 0 0-6.216.34zM301.795 82.584v.177c0 .229 0 .458-.007.687-.007.377-.015.746-.037 1.123v.007c-.015.495-.044.99-.081 1.485a24.72 24.72 0 0 1-.089 1.049c-2.277 24.599-22.995 43.871-48.216 43.871-25.273 0-46.013-19.338-48.231-44.011a47.961 47.961 0 0 1-.2-4.389c0-6.739 1.375-13.16 3.874-18.991.155-.369.311-.739.481-1.101.015-.037.03-.074.044-.103a48.623 48.623 0 0 1 24.525-24.119c5.967-2.631 12.562-4.086 19.505-4.086a48.405 48.405 0 0 1 16.91 3.03c.872.332 1.738.68 2.588 1.057a48.56 48.56 0 0 1 22.093 19.508c.296.48.569.968.836 1.456.03.037.052.074.067.111.237.429.466.865.68 1.301.148.266.281.539.414.82.007.007.007.015.007.022.281.569.547 1.145.799 1.729a47.32 47.32 0 0 1 3.608 12.954c.015.037.015.081.022.126.081.591.148 1.175.192 1.773v.007c.104 1.012.163 2.032.192 3.067.007.229.015.465.015.702.009.243.009.494.009.738zM253.369 139.459h-.008l-.622-.003.008-.739.614.003c2.48.03 4.992-.164 7.443-.488l.097.732a57.65 57.65 0 0 1-7.532.495zm-8.779-.672a56.724 56.724 0 0 1-7.969-1.829l.217-.706a55.982 55.982 0 0 0 7.865 1.806l-.113.729zm24.319-1.477-.202-.711a55.927 55.927 0 0 0 7.586-2.755l.302.675a56.54 56.54 0 0 1-7.686 2.791zm-39.915-3.314a57.095 57.095 0 0 1-7.119-4.028l.409-.616a56.387 56.387 0 0 0 7.026 3.976l-.316.668zm54.799-3.343-.396-.624a56.651 56.651 0 0 0 6.488-4.795l.481.561a57.31 57.31 0 0 1-6.573 4.858zm-68.385-5.688a57.426 57.426 0 0 1-5.686-5.872l.567-.475a56.69 56.69 0 0 0 5.613 5.797l-.494.55zm80.773-4.916-.556-.487a56.25 56.25 0 0 0 4.872-6.433l.62.403a57.315 57.315 0 0 1-4.936 6.517zm-91.248-7.578a56.908 56.908 0 0 1-3.789-7.236l.678-.295a56.21 56.21 0 0 0 3.74 7.142l-.629.389zm100.136-6.098-.672-.31a55.987 55.987 0 0 0 2.842-7.554l.709.209a56.652 56.652 0 0 1-2.879 7.655zm-106.634-8.85a56.742 56.742 0 0 1-1.567-8.02l.734-.089a56.147 56.147 0 0 0 1.546 7.916l-.713.193zm111.257-6.789-.732-.105c.38-2.645.573-5.352.573-8.045h.739c0 2.729-.195 5.47-.58 8.15zm-112.488-9.376-.739-.016a57.41 57.41 0 0 1 .757-8.136l.729.121a56.503 56.503 0 0 0-.747 8.031zm112.051-4.39a56.248 56.248 0 0 0-1.373-7.947l.718-.178a56.824 56.824 0 0 1 1.391 8.052l-.736.073zM199.843 65.487l-.704-.225a56.754 56.754 0 0 1 3.047-7.589l.664.324a55.995 55.995 0 0 0-3.007 7.49zm105.534-4.133a56.14 56.14 0 0 0-3.583-7.222l.637-.375a56.973 56.973 0 0 1 3.631 7.317l-.685.28zm-98.472-10.335-.611-.416a57.067 57.067 0 0 1 5.077-6.408l.545.499a56.545 56.545 0 0 0-5.011 6.325zm90.305-3.523a56.668 56.668 0 0 0-5.486-5.917l.505-.54a57.404 57.404 0 0 1 5.557 5.994l-.576.463zm-79.433-8.349-.469-.571a57.3 57.3 0 0 1 6.677-4.714l.382.633a56.538 56.538 0 0 0-6.59 4.652zm67.672-2.644a56.396 56.396 0 0 0-6.938-4.128l.332-.66a57.172 57.172 0 0 1 7.029 4.182l-.423.606zm-53.895-5.668-.287-.681a56.771 56.771 0 0 1 7.745-2.622l.186.715a56.022 56.022 0 0 0-7.644 2.588zm39.497-1.547a56.014 56.014 0 0 0-7.824-1.978l.128-.727a56.764 56.764 0 0 1 7.928 2.003l-.232.702zm-23.916-2.499-.081-.734a57.717 57.717 0 0 1 6.297-.345h.01c.623 0 1.244.01 1.862.03l-.023.738a57.81 57.81 0 0 0-8.065.311zM434.363 292.336l-.622-.004.007-.739.615.003c2.488 0 4.992-.164 7.443-.488l.097.733a57.61 57.61 0 0 1-7.54.495zm-8.771-.671a56.706 56.706 0 0 1-7.97-1.829l.217-.706a56.293 56.293 0 0 0 7.865 1.805l-.112.73zm24.319-1.477-.202-.712a56.045 56.045 0 0 0 7.585-2.754l.302.674a56.618 56.618 0 0 1-7.685 2.792zm-39.916-3.314a57.188 57.188 0 0 1-7.118-4.028l.409-.615a56.37 56.37 0 0 0 7.027 3.975l-.318.668zm54.8-3.344-.396-.624a56.739 56.739 0 0 0 6.488-4.795l.481.561a57.162 57.162 0 0 1-6.573 4.858zm-68.386-5.688a57.446 57.446 0 0 1-5.686-5.872l.566-.475a56.71 56.71 0 0 0 5.613 5.797l-.493.55zm80.773-4.916-.556-.486a56.25 56.25 0 0 0 4.872-6.433l.62.403a57.304 57.304 0 0 1-4.936 6.516zm-91.248-7.577a56.915 56.915 0 0 1-3.79-7.236l.679-.294a56.082 56.082 0 0 0 3.74 7.142l-.629.388zm100.136-6.099-.672-.31a55.987 55.987 0 0 0 2.842-7.554l.709.209a56.518 56.518 0 0 1-2.879 7.655zm-106.634-8.849a56.97 56.97 0 0 1-1.567-8.02l.734-.089a56.121 56.121 0 0 0 1.547 7.916l-.714.193zm111.256-6.79-.732-.105c.38-2.645.573-5.352.573-8.045h.739c0 2.729-.195 5.47-.58 8.15zm-112.488-9.376-.739-.016c.059-2.727.313-5.464.757-8.136l.729.121a56.622 56.622 0 0 0-.747 8.031zm112.052-4.39a56.223 56.223 0 0 0-1.373-7.947l.718-.178a56.955 56.955 0 0 1 1.391 8.053l-.736.072zm-109.412-11.481-.705-.225a56.707 56.707 0 0 1 3.048-7.589l.664.324a56.13 56.13 0 0 0-3.007 7.49zm105.533-4.133a56.14 56.14 0 0 0-3.583-7.222l.637-.375a56.967 56.967 0 0 1 3.63 7.317l-.684.28zm-98.471-10.335-.611-.416a57.307 57.307 0 0 1 5.076-6.408l.546.499a56.68 56.68 0 0 0-5.011 6.325zm90.305-3.522a56.668 56.668 0 0 0-5.486-5.917l.506-.54a57.404 57.404 0 0 1 5.557 5.994l-.577.463zm-79.433-8.349-.469-.572a57.286 57.286 0 0 1 6.677-4.714l.383.633a56.544 56.544 0 0 0-6.591 4.653zm67.673-2.644a56.271 56.271 0 0 0-6.938-4.128l.332-.66a57.172 57.172 0 0 1 7.029 4.182l-.423.606zm-53.896-5.668-.287-.681a56.771 56.771 0 0 1 7.745-2.622l.186.715a56.022 56.022 0 0 0-7.644 2.588zm39.497-1.548a56.014 56.014 0 0 0-7.824-1.978l.129-.727a56.49 56.49 0 0 1 7.928 2.004l-.233.701zm-23.917-2.499-.081-.735a57.727 57.727 0 0 1 8.17-.315l-.023.739c-.614-.02-1.231-.051-1.848-.029a56.771 56.771 0 0 0-6.218.34zM482.797 235.46c0 26.735-21.687 48.4-48.43 48.4-26.751 0-48.43-21.666-48.43-48.4a48.307 48.307 0 0 1 3.009-16.833c.244-.665.51-1.323.784-1.973a47.719 47.719 0 0 1 3.52-6.776c.414-.673.843-1.323 1.294-1.966 8.747-12.599 23.32-20.853 39.824-20.853 16.503 0 31.077 8.254 39.816 20.853.451.643.887 1.293 1.301 1.966a47.822 47.822 0 0 1 3.52 6.776c.274.65.54 1.308.784 1.973a48.33 48.33 0 0 1 3.008 16.833zM185.78 404.459c-.745-.823-1.634-1.62-2.667-2.391a187.584 187.584 0 0 0-3.196-2.332l-.209-.148v-2.341l.778.98c.3.379.542.66.725.842.471-.261 1.02-.6 1.647-1.018a97.004 97.004 0 0 0 1.863-1.274c.614-.431 1.196-.836 1.745-1.215a32.53 32.53 0 0 1 1.333-.881c-.471-.679-1.105-1.436-1.902-2.273a20.508 20.508 0 0 0-2.686-2.351 18.606 18.606 0 0 0-3.176-1.881c-.109-.051-.218-.089-.327-.135v-4.294h-4.401v3.598a8.554 8.554 0 0 0-3.467 1.066c-1.438.81-2.549 1.842-3.333 3.096a7.362 7.362 0 0 0-1.137 4.115c.026 1.489.614 2.874 1.765 4.154.392.444.869.915 1.431 1.411.562.497 1.15.98 1.765 1.45a48.42 48.42 0 0 0 1.823 1.333c.421.293.797.541 1.154.77v2.694a17.208 17.208 0 0 1-2.076-1.994c-.719-.823-1.235-1.509-1.549-2.058a115.147 115.147 0 0 1-2.411 2.332c-.431.405-.83.797-1.196 1.176a14.49 14.49 0 0 0-.863.96c.81 1.568 1.824 2.835 3.039 3.801 1.216.967 2.516 1.685 3.902 2.155.383.13.768.239 1.154.335v2.506h4.401v-2.135c.938-.064 1.827-.21 2.66-.451 1.216-.353 2.268-.868 3.157-1.548.888-.679 1.477-1.476 1.765-2.391.366-1.097.392-2.109.078-3.037-.315-.927-.844-1.803-1.589-2.626zm-10.882-8.896c-.262-.509-.157-.986.314-1.43.031-.027.064-.045.095-.068v2.123a4.17 4.17 0 0 1-.409-.625zm5.137 13.07a1.876 1.876 0 0 1-.327.296v-1.519c.159.143.288.283.386.42.196.274.176.542-.059.803z" style="fill:#e0e0e0"/><ellipse cx="254.074" cy="459.267" rx="99.244" ry="14.691" style="fill:#e0e0e0"/><path d="M196.074 187.691c-.745-.823-1.634-1.619-2.667-2.391a187.584 187.584 0 0 0-3.196-2.332l-.209-.148v-2.341l.778.98c.3.379.542.66.725.842.471-.261 1.02-.6 1.647-1.019a97.004 97.004 0 0 0 1.863-1.274c.614-.431 1.196-.836 1.745-1.215.549-.378.993-.672 1.334-.881-.471-.679-1.105-1.437-1.902-2.273a20.588 20.588 0 0 0-2.686-2.352 18.567 18.567 0 0 0-3.176-1.881c-.109-.051-.218-.089-.327-.135v-4.294H185.6v3.598a8.554 8.554 0 0 0-3.467 1.066c-1.438.81-2.549 1.842-3.333 3.096a7.354 7.354 0 0 0-1.137 4.115c.026 1.489.614 2.874 1.765 4.154.392.444.869.915 1.431 1.411.562.497 1.15.98 1.765 1.45.614.471 1.222.915 1.824 1.332.42.293.797.542 1.154.77v2.694a17.127 17.127 0 0 1-2.075-1.994c-.719-.823-1.235-1.509-1.549-2.058a101.86 101.86 0 0 1-2.412 2.332c-.431.405-.83.797-1.196 1.176a14.49 14.49 0 0 0-.863.96c.81 1.567 1.824 2.835 3.039 3.801 1.216.966 2.516 1.685 3.902 2.155.382.13.768.239 1.154.335v2.506h4.401v-2.135a12.6 12.6 0 0 0 2.66-.451c1.216-.353 2.268-.868 3.157-1.548.888-.679 1.477-1.476 1.765-2.391.366-1.097.392-2.109.078-3.037-.315-.924-.844-1.8-1.589-2.623zm-10.882-8.896c-.262-.509-.157-.986.314-1.43.031-.028.063-.045.095-.068v2.123a4.02 4.02 0 0 1-.409-.625zm5.137 13.07a1.876 1.876 0 0 1-.327.296v-1.519c.16.143.288.283.386.42.195.274.176.542-.059.803zM365.238 313.742c-.745-.823-1.634-1.62-2.667-2.391a187.584 187.584 0 0 0-3.196-2.332l-.209-.148v-2.341l.778.98c.3.379.542.66.725.842.471-.261 1.02-.6 1.647-1.018a97.004 97.004 0 0 0 1.863-1.274c.614-.431 1.196-.836 1.745-1.215a32.53 32.53 0 0 1 1.333-.881c-.471-.679-1.105-1.437-1.902-2.273a20.508 20.508 0 0 0-2.686-2.351 18.567 18.567 0 0 0-3.176-1.881c-.109-.051-.218-.089-.327-.135v-4.294h-4.401v3.598a8.554 8.554 0 0 0-3.467 1.066c-1.438.81-2.549 1.842-3.333 3.096a7.354 7.354 0 0 0-1.137 4.115c.026 1.489.614 2.874 1.765 4.154.392.444.869.915 1.431 1.411.562.497 1.15.98 1.765 1.45.614.471 1.222.915 1.823 1.332.42.293.797.541 1.154.77v2.694a17.127 17.127 0 0 1-2.075-1.994c-.719-.823-1.235-1.509-1.549-2.058a115.147 115.147 0 0 1-2.411 2.332c-.431.405-.83.797-1.196 1.176a14.49 14.49 0 0 0-.863.96c.81 1.567 1.824 2.835 3.039 3.801 1.216.966 2.516 1.685 3.902 2.155.383.13.767.239 1.154.335v2.506h4.401v-2.135c.938-.064 1.827-.21 2.66-.451 1.216-.353 2.268-.868 3.157-1.548.888-.679 1.477-1.476 1.765-2.391.366-1.097.392-2.109.078-3.037-.315-.927-.844-1.803-1.59-2.625zm-10.881-8.897c-.262-.509-.157-.986.314-1.43.03-.028.063-.045.095-.068v2.123a4.02 4.02 0 0 1-.409-.625zm5.136 13.07a1.876 1.876 0 0 1-.327.296v-1.519c.159.143.288.283.386.42.196.274.177.542-.059.803z" style="fill:#e0e0e0"/><path d="m39.514 213.851 48.629-11.721-6.858 56.961-28.35 7.97z" style="fill:#5ec1d1"/><path d="m43.616 217.611 40.426-9.892-4.463 47.24-24.672 7.192-.572-.028z" style="fill:#fff"/><path d="m84.042 207.719-.101 1.071-38.635 9.72 9.601 43.641-.572-.028-10.719-44.512z" style="fill:#f9e4c0"/><path d="m88.143 202.13-.927-.369-49.441 11.42 14.371 53.504.789.376-13.421-53.21z" style="fill:#47919e"/><path d="m88.143 202.13-48.071 12.1 12.863 52.831-13.421-53.21z" style="fill:#fff;enable-background:new"/><path d="m61.229 221.271-10.124 3.1 2.027 8.453 9.524-2.361-1.427-9.192zm-9.46 3.408 8.96-2.743 1.263 8.135-8.429 2.09-1.794-7.482z" style="fill:#ddca5b"/><path d="m53.526 227.61 5.098 3.295s5.861-9.329 8.946-11.821c0 0-3.38 2.082-9.253 10.658-.001-.001-3.665-1.83-4.791-2.132z" style="fill:#3a3a3a"/><path d="m63.492 227.048.14.714 16.146-4.703v-.727zM63.829 229.048l.14.714 16.146-4.702v-.728zM64.98 244.589l-8.596 2.632 1.721 7.178 7.642-2.266-.767-7.544zm-8.033 2.894 7.608-2.329.627 6.646-6.712 2.036-1.523-6.353z" style="fill:#ddca5b"/><path d="m58.439 249.972 4.329 2.798s4.977-7.922 7.596-10.038c0 0-2.87 1.768-7.857 9.05 0 0-3.112-1.554-4.068-1.81z" style="fill:#3a3a3a"/><path d="m66.901 249.494.119.607 11.394-3.453v-.618zM67.187 251.193l.119.607 11.394-3.453v-.618z" style="fill:#ddca5b"/><path d="m55.356 265.94.448-3.526 6.133-1.785-.872 3.707zM61.727 264.114l.778-3.527 17.067-5.051-.221 3.456zM82.145 231.932l-.546 5.5 2.174-2.195.682-5.475z" style="opacity:.25;fill:#fff"/><path d="M141.597 168.206c0 1.955-4.161 3.603-9.82 4.093-.016 0-.027.005-.043.005a39.956 39.956 0 0 1-3.476.146c-7.367 0-13.339-1.901-13.339-4.244s5.972-4.239 13.339-4.239c4.247 0 8.03.63 10.472 1.61l.011.011c1.789.717 2.856 1.627 2.856 2.618z" style="fill:#58d8ed"/><path d="m121.565 157.965-2.963 9.566s9.162 5.476 19.312 0l-3.323-9.443-13.026-.123z" style="fill:#47909f"/><path d="m93.975 107.855 66.769-1.858a2.242 2.242 0 0 1 2.28 2.576l-7.392 48.865a2.242 2.242 0 0 1-2.239 1.906l-52.975-.502a2.244 2.244 0 0 1-2.201-1.936l-6.401-46.505a2.24 2.24 0 0 1 2.159-2.546z" style="fill:#2ecee7"/><path d="m94.574 110.922 64.943-1.312-8.05 46.925-49.842-.674z" style="fill:#46919e"/><path d="m94.978 111.515 64.135-1.616-8.084 45.962-49.045-.808z" style="fill:#d6f5fa"/><path d="M141.597 168.206c0 1.955-4.161 3.603-9.82 4.093 11.086-1.239 7.184-6.426 6.963-6.711 1.79.717 2.857 1.627 2.857 2.618z" style="opacity:.15;fill:#f1f1ef"/><path d="m95.449 108.126 12.127-.336.977 2.424-12.226.291zM133.558 107.231l12.126-.337.977 2.424-12.225.292zM102.169 156.198l12.323.208.781 2.171h-12.226zM139.161 156.535l12.238.303.708 2.317-12.13-.184z" style="opacity:.05;fill:#f1f1ef"/><path d="M129.05 157.561a1.195 1.195 0 1 1-2.39 0 1.195 1.195 0 0 1 2.39 0z" style="fill:#1b3c39"/><path d="M128.948 157.563c0 .549-.404 1.002-.927 1.083-.054.005-.113.011-.167.011a1.094 1.094 0 0 1-.086-2.186c.027-.006.059-.006.086-.006a1.095 1.095 0 0 1 1.094 1.098z" style="fill:#408c9a"/><path d="M128.948 157.563c0 .549-.404 1.002-.927 1.083l-.006-.005c.604-1.508-.248-2.171-.248-2.171.027-.006.059-.006.086-.006.604 0 1.095.491 1.095 1.099z" style="opacity:.15;fill:#f1f1ef"/><path d="m354.064 110.352 46.529-14.514v1.464l-45.965 14.036z" style="fill:#ac6820"/><path d="m406.278 99.07-6.014-1.87-45.293 13.416 2.477.722z" style="fill:#edcb8e"/><path d="m400.683 97.33.383.12-45.061 13.468zM401.411 97.542l.384.119-45.061 13.468zM402.104 97.753l.384.119-45.061 13.468zM402.715 97.976l.384.119-45.061 13.468zM403.385 98.152l.384.119-45.061 13.468zM404.196 98.399l.383.119-45.061 13.468zM404.96 98.656l.383.119-45.061 13.468z" style="fill:#ceb68a"/><path d="m406.699 125.077 5.07-1.534.809-11.3-5.879 3z" style="fill:#ac8631"/><path d="m404.986 131.493 5.069-1.534.809-11.299-5.878 3z" style="fill:#fa8260"/><path d="m403.76 140.586 5.069-1.534.81-11.299-5.879 3z" style="fill:#ac5531"/><path d="m405.717 98.871.342.131-44.931 13.429z" style="fill:#ceb68a"/><path d="m357.448 111.338 50.477-12.682-3.346 65.664-36.697 9.723z" style="fill:#f9962e"/><path d="m367.882 174.043-3.666-1.268-10.152-62.423 3.384.986z" style="fill:#ac600f"/><path d="m372.347 128.388 24.893-6.263-1.112 18.461-20.585 5.044z" style="fill:#fff"/><path d="m373.663 131.817.141.869 22.418-5.754.118-.916zM374.109 133.878l.141.851 21.831-5.613.08-.875z" style="fill:#282828"/><path d="M410.864 118.66v5.156l-.377.115z" style="fill:#486999"/><path d="m409.639 127.753.137 2.291-.308.093z" style="fill:#843f2c"/><path d="m407.925 98.656-.728-.188-50.309 12.707.56.163zM400.593 95.838h-.94l-45.354 14.232-.235.282z" style="fill:#fad260"/><path d="M363.622 142.54c2.434 16.528 4.162 29.962 3.86 30.007-.302.045-2.519-13.318-4.953-29.846s-4.162-29.962-3.86-30.007c.302-.045 2.52 13.318 4.953 29.846z" style="opacity:.52;fill:#fff"/><path d="M454.017 234.936c0-13.41-5.667-25.008-13.908-30.595l-.027-3.553h-11.088c-13.82 0-25.023 15.289-25.023 34.149s11.203 34.149 25.023 34.149H440.6l-.03-3.876c7.991-5.703 13.447-17.116 13.447-30.274z" style="fill:#0f889b"/><path d="M465.109 234.933c0 7.14-1.605 13.773-4.359 19.258a32.725 32.725 0 0 1-3.728 5.878c-4.452 5.598-10.396 9.013-16.94 9.013-13.823 0-25.027-15.284-25.027-34.149 0-18.854 11.204-34.149 25.027-34.149 12.342 0 22.594 12.19 24.644 28.219.258 1.925.383 3.912.383 5.93z" style="fill:#2ecee8"/><ellipse cx="441.329" cy="234.936" rx="21.611" ry="29.492" style="fill:#0f889b"/><path d="M457.747 234.933c0 14.601-8.501 26.481-19.125 26.905h-.01c-.197.021-.394.021-.59.021-.435 0-.859-.021-1.284-.062a14.482 14.482 0 0 1-1.501-.207c-2.04-.393-3.976-1.211-5.767-2.38l-.197-.135c-6.503-4.408-10.976-13.566-10.976-24.142 0-14.87 8.832-26.915 19.725-26.915 2.309 0 4.535.548 6.596 1.542v.01c1.667.797 3.231 1.904 4.659 3.26.331.31.652.642.973.983v.01c.456.486.89.993 1.305 1.531v.01c3.82 4.906 6.192 11.86 6.192 19.569z" style="fill:#d6d5d4"/><path d="M439.33 234.936c0 1.024-.586 1.854-1.308 1.854s-1.308-.83-1.308-1.854.586-1.854 1.308-1.854 1.308.831 1.308 1.854z" style="fill:#3f3f3f"/><path d="M432.486 224.987h20.229v1.208h-20.229z" style="fill:#3f3f3f" transform="rotate(-63.858 442.596 225.593)"/><path d="M441.486 232.149h1.539v9.283h-1.539z" style="fill:#3f3f3f" transform="rotate(-66.94 442.258 236.787)"/><path d="M419.114 204.388c-.194.065-5.566 3.428-10.031 11.577l8.672.647s2.265-5.562 7.378-9.96l-6.019-2.264zM407.379 220.622s-4.228 8.623-1.726 21.903l8.888-1.466s-1.64-9.486 1.553-19.661l-8.715-.776zM465.109 234.933l-2.185 1.149h-4.784c.259-2.846-.394-5.754-.394-5.754l4.877-.455h.041l2.06-.869c.26 1.924.385 3.911.385 5.929zM460.749 254.191a32.725 32.725 0 0 1-3.728 5.878l-2.319-1.966-3.148-2.773c1.512-1.811 3.148-4.698 3.148-4.698l3.676 2.287 2.371 1.272z" style="opacity:.25;fill:#fff"/><path d="m449.277 212.83-14.041 48.76c-2.04-.393-3.976-1.211-5.767-2.38l-.197-.135 15.345-49.505c1.667.797 3.231 1.904 4.66 3.26zM451.555 215.355v.01l-12.933 46.473h-.01c-.197.021-.394.021-.59.021-.435 0-.859-.021-1.284-.062l13.513-47.974c.455.486.889.993 1.304 1.532z" style="opacity:.54;fill:#fff"/><path d="m396.762 336.059 56.741-5.111-12.544 49.804-40.172-7.756z" style="fill:#c2dee1"/><path d="m440.959 380.752-20.696-26.225h-2.532l-16.944 18.469z" style="fill:#547b81"/><path d="m440.959 380.752-21.209-25.86h-1.605l-17.358 18.104z" style="fill:#97c8cc"/><path d="m453.503 330.948-34.642 24.574-22.099-19.463z" style="fill:#547b81"/><path d="m396.762 336.059 22.427 17.956 34.314-23.067z" style="fill:#97c8cc"/><path d="M396.762 336.059s38.793-1.835 56.74-5.112l-56.74 5.112z" style="fill:#c2dee1"/><path d="m453.503 330.948-12.544 49.805c.067.043 5.231-27.236 12.544-49.805zM396.762 336.059s4.312 26.1 4.025 36.936l-4.025-36.936z" style="fill:#547b81"/><path d="M440.959 380.752s-22.442-6.274-40.171-7.757l40.171 7.757z" style="fill:#9ac7ce"/><path d="m55.545 367.296.425.769 38.195 8.283 20.147-28.968 3.776-12.735z" style="fill:#b85a30"/><path d="m82.573 330.99-4.759 9.748-22.269 26.558 38.237 6.655 19.743-27.136 4.563-12.17z" style="fill:#f9962e"/><path d="m113.525 346.815-35.711-6.077 4.759-9.748 35.515 3.655z" style="fill:#60768e"/><path d="m80.759 339.971 3.137-7.361 30.584 3.471-2.997 8.272z" style="fill:#3d5b74"/><path d="m84.057 332.94-2.953 6.872 30.267 4.053 2.784-7.612z" style="fill:#c7cea6"/><path d="m108.477 348.56-1.702 1.901-3.421-.604.103-.605 1.696-1.665 3.26.589z" style="fill:#f96610"/><path d="m103.457 349.252 3.186.605 1.77-1.681.064.384-1.702 1.901-3.421-.604z" style="fill:#7e3330"/><path d="m102.062 347.482-1.702 1.901-3.422-.604.103-.605 1.697-1.665 3.259.589z" style="fill:#514d49"/><path d="m97.041 348.174 3.186.605 1.77-1.681.065.384-1.702 1.901-3.422-.604z" style="fill:#3d3b39"/><path d="m95.646 346.404-1.702 1.901-3.422-.604.104-.605 1.696-1.665 3.259.59z" style="fill:#514d49"/><path d="m90.626 347.096 3.185.605 1.77-1.68.065.383-1.702 1.901-3.422-.604z" style="fill:#3d3b39"/><path d="m89.23 345.326-1.701 1.901-3.422-.604.103-.604 1.696-1.666 3.26.59z" style="fill:#514d49"/><path d="m84.21 346.019 3.186.604 1.77-1.68.064.383-1.701 1.901-3.422-.604z" style="fill:#3d3b39"/><path d="m82.815 344.248-1.702 1.902-3.422-.605.103-.604 1.696-1.666 3.26.59z" style="fill:#514d49"/><path d="m77.794 344.941 3.186.604 1.77-1.68.065.383-1.702 1.902-3.422-.605z" style="fill:#3d3b39"/><path d="m104.794 353.23-1.701 1.901-3.422-.604.103-.604 1.696-1.666 3.26.59z" style="fill:#514d49"/><path d="m99.774 353.923 3.186.604 1.77-1.68.064.383-1.701 1.901-3.422-.604z" style="fill:#3d3b39"/><path d="m98.379 352.152-1.702 1.902-3.422-.605.103-.604 1.697-1.666 3.259.59z" style="fill:#514d49"/><path d="m93.358 352.845 3.186.604 1.77-1.68.065.383-1.702 1.902-3.422-.605z" style="fill:#3d3b39"/><path d="m91.963 351.074-1.702 1.902-3.421-.605.103-.604 1.696-1.665 3.259.589z" style="fill:#514d49"/><path d="m86.943 351.767 3.185.604 1.77-1.68.065.383-1.702 1.902-3.421-.605z" style="fill:#3d3b39"/><path d="m85.547 349.997-1.701 1.901-3.422-.604.103-.605 1.696-1.665 3.26.589z" style="fill:#514d49"/><path d="m80.527 350.689 3.186.605 1.77-1.681.064.384-1.701 1.901-3.422-.604z" style="fill:#3d3b39"/><path d="m79.132 348.919-1.702 1.901-3.422-.604.103-.604 1.697-1.666 3.259.589z" style="fill:#514d49"/><path d="m74.111 349.612 3.186.604 1.77-1.681.065.384-1.702 1.901-3.422-.604z" style="fill:#3d3b39"/><path d="m94.696 356.823-1.702 1.901-3.422-.604.103-.604 1.697-1.666 3.259.59z" style="fill:#514d49"/><path d="m89.675 357.516 3.186.604 1.77-1.68.065.383-1.702 1.901-3.422-.604z" style="fill:#3d3b39"/><path d="m88.28 355.745-1.702 1.901-3.421-.604.103-.604 1.696-1.666 3.259.59z" style="fill:#514d49"/><path d="m83.26 356.438 3.185.604 1.77-1.68.065.383-1.702 1.901-3.421-.604z" style="fill:#3d3b39"/><path d="m81.864 354.667-1.701 1.902-3.422-.605.103-.604 1.696-1.666 3.26.59z" style="fill:#514d49"/><path d="m76.844 355.36 3.186.604 1.77-1.68.064.383-1.701 1.902-3.422-.605z" style="fill:#3d3b39"/><path d="m75.449 353.59-1.702 1.901-3.422-.605.103-.604 1.697-1.666 3.259.59z" style="fill:#514d49"/><path d="m70.428 354.282 3.186.604 1.77-1.68.065.384-1.702 1.901-3.422-.605z" style="fill:#3d3b39"/><path d="m91.013 361.493-1.702 1.902-3.422-.605.104-.604 1.696-1.665 3.259.589z" style="fill:#514d49"/><path d="m85.993 362.186 3.185.604 1.77-1.68.065.383-1.702 1.902-3.422-.605z" style="fill:#3d3b39"/><path d="m84.597 360.416-1.702 1.901-3.421-.604.103-.605 1.696-1.665 3.259.589z" style="fill:#514d49"/><path d="m79.577 361.108 3.186.605 1.769-1.681.065.384-1.702 1.901-3.421-.604z" style="fill:#3d3b39"/><path d="m78.182 359.338-1.702 1.901-3.422-.604.103-.605 1.696-1.665 3.26.589z" style="fill:#514d49"/><path d="m73.161 360.03 3.186.605 1.77-1.681.065.384-1.702 1.901-3.422-.604z" style="fill:#3d3b39"/><path d="m71.766 358.26-1.702 1.901-3.422-.604.104-.604 1.696-1.666 3.259.59z" style="fill:#514d49"/><path d="m66.746 358.953 3.185.604 1.77-1.68.065.383-1.702 1.901-3.422-.604z" style="fill:#3d3b39"/><path d="m93.631 367.202-1.587 1.941-3.422-.604.103-.604 9.062-11.007 3.11.627z" style="fill:#514d49"/><path d="m88.725 367.999 3.186.604 8.986-11.048.064.384-8.917 11.269-3.422-.605z" style="fill:#3d3b39"/><path d="m87.33 366.164-1.702 1.901-3.422-.604.104-.604 1.696-1.666 3.259.59z" style="fill:#514d49"/><path d="m82.31 366.857 3.185.604 1.77-1.68.065.383-1.702 1.901-3.422-.604z" style="fill:#3d3b39"/><path d="m80.914 365.086-1.702 1.901-3.421-.604.103-.604 1.696-1.666 3.259.59z" style="fill:#514d49"/><path d="m75.894 365.779 3.186.604 1.769-1.68.065.383-1.702 1.901-3.421-.604z" style="fill:#3d3b39"/><path d="m74.499 364.008-1.702 1.902-3.422-.605.103-.604 1.696-1.666 3.26.59z" style="fill:#514d49"/><path d="m69.478 364.701 3.186.604 1.77-1.68.065.383-1.702 1.902-3.422-.605z" style="fill:#3d3b39"/><path d="m68.083 362.931-1.702 1.901-3.422-.604.104-.605 1.696-1.665 3.259.589z" style="fill:#514d49"/><path d="m63.063 363.623 3.185.605 1.77-1.681.065.384-1.702 1.901-3.422-.604z" style="fill:#3d3b39"/><defs><filter id="a" width="62.543" height="42.961" x="55.545" y="330.99" filterUnits="userSpaceOnUse"><feFlood result="back" style="flood-color:white;flood-opacity:1"/><feBlend in="SourceGraphic" in2="back"/></filter></defs><mask id="c" width="62.543" height="42.961" x="55.545" y="330.99" maskUnits="userSpaceOnUse"><g style="filter:url(#a)"><defs><filter id="b" width="62.543" height="42.961" x="55.545" y="330.99" filterUnits="userSpaceOnUse"><feFlood result="back" style="flood-color:white;flood-opacity:1"/><feBlend in="SourceGraphic" in2="back"/></filter></defs><path d="m118.088 334.645-4.563 12.17-19.743 27.136-38.237-6.655 22.146-26.431 4.882-9.875z" style="mask:url(#c);fill:url(#SVGID_00000179647788918104765370000018179857925325021077_)"/></g></mask><linearGradient id="d" x1="86.816" x2="86.816" y1="330.99" y2="373.951" gradientUnits="userSpaceOnUse"><stop offset=".138" style="stop-color:#fff"/><stop offset=".237" style="stop-color:#e9e9e9"/><stop offset=".445" style="stop-color:#b0b0b0"/><stop offset=".741" style="stop-color:#555"/><stop offset="1" style="stop-color:#000"/></linearGradient><path d="m118.088 334.645-4.563 12.17-19.743 27.136-38.237-6.655 22.146-26.431 4.882-9.875z" style="opacity:.49;fill:url(#d)"/><path d="m81.609 332.94 23.868 24.937.446 1.566 1.999-2.874-.448-1.438-22.877-23.933-2.024-.208zM109.171 354.772l1.089-1.566-.339-1.437-17.264-19.741-2.312-.22 18.53 21.398z" style="opacity:.24;fill:#fff"/><defs><filter id="e" width="5.124" height="1.975" x="62.959" y="362.931" filterUnits="userSpaceOnUse"><feFlood result="back" style="flood-color:white;flood-opacity:1"/><feBlend in="SourceGraphic" in2="back"/></filter></defs><mask id="g" width="5.124" height="1.975" x="62.959" y="362.931" maskUnits="userSpaceOnUse"><g style="filter:url(#e)"><defs><filter id="f" width="5.124" height="1.975" x="62.959" y="362.931" filterUnits="userSpaceOnUse"><feFlood result="back" style="flood-color:white;flood-opacity:1"/><feBlend in="SourceGraphic" in2="back"/></filter></defs><path d="m62.959 364.228 3.331.475 1.793-1.772-1.719 1.975z" style="mask:url(#g);fill:url(#SVGID_00000176750995552923335580000001139257140291239339_)"/></g></mask><linearGradient id="h" x1="62.959" x2="68.083" y1="363.918" y2="363.918" gradientUnits="userSpaceOnUse"><stop offset=".439" style="stop-color:#fff"/><stop offset="1" style="stop-color:#fff"/></linearGradient><path d="m62.959 364.228 3.331.475 1.793-1.772-1.719 1.975z" style="fill:url(#h)"/><defs><filter id="i" width="57.98" height="27.922" x="55.545" y="346.815" filterUnits="userSpaceOnUse"><feFlood result="back" style="flood-color:white;flood-opacity:1"/><feBlend in="SourceGraphic" in2="back"/></filter></defs><mask id="k" width="57.98" height="27.922" x="55.545" y="346.815" maskUnits="userSpaceOnUse"><g style="filter:url(#i)"><defs><filter id="j" width="57.98" height="27.922" x="55.545" y="346.815" filterUnits="userSpaceOnUse"><feFlood result="back" style="flood-color:white;flood-opacity:1"/><feBlend in="SourceGraphic" in2="back"/></filter></defs><path d="M55.545 367.296s35.877 6.085 38.001 5.555c2.124-.531 19.979-26.035 19.979-26.035L93.9 374.737l-38.355-7.441z" style="mask:url(#k);fill:url(#SVGID_00000083067107538973980280000007172740492896801982_)"/></g></mask><linearGradient id="l" x1="84.535" x2="84.535" y1="374.737" y2="346.815" gradientUnits="userSpaceOnUse"><stop offset=".24" style="stop-color:#fff"/><stop offset=".328" style="stop-color:#e9e9e9"/><stop offset=".513" style="stop-color:#b0b0b0"/><stop offset=".775" style="stop-color:#555"/><stop offset="1" style="stop-color:#020202"/></linearGradient><path d="M55.545 367.296s35.877 6.085 38.001 5.555c2.124-.531 19.979-26.035 19.979-26.035L93.9 374.737l-38.355-7.441z" style="fill:url(#l)"/><path d="m114.312 347.38-.787-.565 4.563-12.17z" style="fill:#3b556c"/><path d="M234.74 76.426c0 .273.027.519.027.792v.055a17.984 17.984 0 0 0 4.21 10.737c2.46 2.923 4.265 6.311 5.796 9.808a44.766 44.766 0 0 0 1.75 3.47v.027c1.258 2.268 2.16 3.525 2.269 4.918h7.819c.109-1.284.793-2.841 1.886-4.89.929-1.803 2.132-4.071 3.472-6.885 1.093-2.295 2.652-4.344 4.319-6.284 2.542-2.951 4.155-6.721 4.347-10.874 0-.027.055-.082.055-.082h-.055c.027-.273.055-.519.055-.792 0-9.918-8.065-17.95-17.988-17.95-.301 0-.601 0-.902.027-9.515.465-17.06 8.306-17.06 17.923z" style="fill:#f2b42a"/><path d="M246.522 101.288h11.974v9.508h-11.974z" style="fill:#898989"/><path d="M246.522 110.796s2.597 1.803 5.276 2.158c.301.027.601.055.902.055 3.007 0 5.796-2.213 5.796-2.213h-11.974z" style="fill:#212121"/><g style="opacity:.25"><path d="M239.325 73.742a5.125 5.125 0 0 0 5.126 5.123 5.124 5.124 0 1 0 0-10.246 5.125 5.125 0 0 0-5.126 5.123z" style="fill:#fff"/></g><path d="M251.798 101.288v11.666c.301.027.601.055.902.055 3.007 0 5.796-2.213 5.796-2.213v-9.453c.929-1.803 2.132-4.071 3.472-6.885 1.093-2.295 2.652-4.344 4.319-6.284 2.542-2.951 4.155-6.721 4.347-10.874 0-.027.055-.082.055-.082h-.055c.027-.273.055-.519.055-.792 0-9.918-8.065-17.95-17.988-17.95-.301 0-.601 0-.902.027 3.332-.515 19.765 15.657-.001 42.785z" style="opacity:.08"/><path d="m252.509 55.426-2.932-10.077h2.932v-8.996l2.678 10.334-2.94-.018zM241.564 58.19l-7.055-7.772 2.635-1.284-3.946-8.086 6.94 8.115-2.65 1.271zM232.94 65.47l-9.751-3.895 1.806-2.309-7.095-5.539 9.798 4.254-1.824 2.304zM228.381 75.791l-10.472.771.61-2.866-8.806-1.87 10.672-.47-.629 2.87zM228.812 87.065l-9.074 5.281-.71-2.843-8.735 2.176 9.386-5.097.694 2.855zM234.143 97.009l-5.839 8.722-1.884-2.245-6.897 5.784 6.2-8.694 1.876 2.263zM273.628 94.814l9.88 3.552-1.723 2.371 7.283 5.288-9.94-3.909 1.743-2.366zM277.823 84.34l10.439-1.136-.509 2.886 8.865 1.562-10.649.842.529-2.891zM277 73.088l8.883-5.594.809 2.817 8.653-2.48-9.202 5.422-.793-2.83zM271.324 63.336l5.531-8.92 1.961 2.177 6.691-6.019-5.893 8.904-1.954-2.196zM261.944 57.057l1.059-10.44 2.718 1.098 3.373-8.342-1.391 10.585-2.719-1.118z" style="fill:#f2b42a"/></svg>